solid ascii
 facet normal 0.344656 -0.932785 0.105476
  outer loop
   vertex 0.0715692 -0.0197238 0.647
   vertex 0.0756086 -0.018284 0.646533
   vertex 0.0688797 -0.020289 0.650789
  endloop
 endfacet
 facet normal -0.573012 0.351923 -0.74014
  outer loop
   vertex 0.0749388 -0.0108351 0.650594
   vertex 0.0756086 -0.018284 0.646533
   vertex 0.0688797 -0.020289 0.650789
  endloop
 endfacet
 facet normal -0.282664 0.161585 -0.945511
  outer loop
   vertex 0.0705437 -0.0137077 0.651417
   vertex 0.0749388 -0.0108351 0.650594
   vertex 0.0688797 -0.020289 0.650789
  endloop
 endfacet
 facet normal -0.847817 0.258485 -0.463024
  outer loop
   vertex 0.065695 -0.0188933 0.6574
   vertex 0.0705437 -0.0137077 0.651417
   vertex 0.0688797 -0.020289 0.650789
  endloop
 endfacet
 facet normal -0.676247 0.583962 -0.449085
  outer loop
   vertex 0.0622365 -0.0205913 0.6604
   vertex 0.065695 -0.0188933 0.6574
   vertex 0.0688797 -0.020289 0.650789
  endloop
 endfacet
 facet normal -0.82253 -0.00421325 -0.568705
  outer loop
   vertex 0.067868 -0.027711 0.652308
   vertex 0.0622365 -0.0205913 0.6604
   vertex 0.0688797 -0.020289 0.650789
  endloop
 endfacet
 facet normal -0.143987 -0.179446 -0.973174
  outer loop
   vertex 0.0759943 -0.0277918 0.65112
   vertex 0.067868 -0.027711 0.652308
   vertex 0.0688797 -0.020289 0.650789
  endloop
 endfacet
 facet normal -0.260246 -0.287424 -0.92177
  outer loop
   vertex 0.0769736 -0.0220478 0.649053
   vertex 0.0759943 -0.0277918 0.65112
   vertex 0.0688797 -0.020289 0.650789
  endloop
 endfacet
 facet normal 0.266847 0.907382 0.324731
  outer loop
   vertex 0.0769736 -0.0220478 0.649053
   vertex 0.0715692 -0.0197238 0.647
   vertex 0.0688797 -0.020289 0.650789
  endloop
 endfacet
 facet normal 0.0918206 -0.530701 -0.842571
  outer loop
   vertex 0.0769736 -0.0220478 0.649053
   vertex 0.0715692 -0.0197238 0.647
   vertex 0.0756086 -0.018284 0.646533
  endloop
 endfacet
 facet normal 0.0751444 -0.535725 -0.841042
  outer loop
   vertex 0.0843131 -0.0211318 0.649125
   vertex 0.0769736 -0.0220478 0.649053
   vertex 0.0756086 -0.018284 0.646533
  endloop
 endfacet
 facet normal 0.0323912 -0.616757 -0.786487
  outer loop
   vertex 0.083705 -0.0171788 0.646
   vertex 0.0843131 -0.0211318 0.649125
   vertex 0.0756086 -0.018284 0.646533
  endloop
 endfacet
 facet normal -0.0268297 -0.268114 -0.963013
  outer loop
   vertex 0.0840526 -0.0118954 0.644519
   vertex 0.083705 -0.0171788 0.646
   vertex 0.0756086 -0.018284 0.646533
  endloop
 endfacet
 facet normal -0.154669 -0.10524 -0.982345
  outer loop
   vertex 0.0774254 -0.0133095 0.645714
   vertex 0.0840526 -0.0118954 0.644519
   vertex 0.0756086 -0.018284 0.646533
  endloop
 endfacet
 facet normal 0.822373 -0.213517 0.527365
  outer loop
   vertex 0.0774254 -0.0133095 0.645714
   vertex 0.0749388 -0.0108351 0.650594
   vertex 0.0756086 -0.018284 0.646533
  endloop
 endfacet
 facet normal -0.267668 0.797427 -0.540799
  outer loop
   vertex 0.0840526 -0.0118954 0.644519
   vertex 0.0774254 -0.0133095 0.645714
   vertex 0.0749388 -0.0108351 0.650594
  endloop
 endfacet
 facet normal -0.416214 0.55381 -0.721152
  outer loop
   vertex 0.0808349 -0.00847919 0.649
   vertex 0.0840526 -0.0118954 0.644519
   vertex 0.0749388 -0.0108351 0.650594
  endloop
 endfacet
 facet normal -0.433836 0.77573 -0.45829
  outer loop
   vertex 0.084256 -0.00518062 0.651345
   vertex 0.0808349 -0.00847919 0.649
   vertex 0.0749388 -0.0108351 0.650594
  endloop
 endfacet
 facet normal -0.34955 0.663801 -0.661198
  outer loop
   vertex 0.0779276 -0.00677385 0.653091
   vertex 0.084256 -0.00518062 0.651345
   vertex 0.0749388 -0.0108351 0.650594
  endloop
 endfacet
 facet normal -0.600915 0.690158 -0.403216
  outer loop
   vertex 0.076211 -0.0047145 0.659174
   vertex 0.0779276 -0.00677385 0.653091
   vertex 0.0749388 -0.0108351 0.650594
  endloop
 endfacet
 facet normal -0.389141 0.776233 -0.496016
  outer loop
   vertex 0.0725648 -0.00857064 0.656
   vertex 0.076211 -0.0047145 0.659174
   vertex 0.0749388 -0.0108351 0.650594
  endloop
 endfacet
 facet normal -0.771045 0.3912 -0.502447
  outer loop
   vertex 0.0682484 -0.0123533 0.659679
   vertex 0.0725648 -0.00857064 0.656
   vertex 0.0749388 -0.0108351 0.650594
  endloop
 endfacet
 facet normal 0.561291 -0.777581 0.283408
  outer loop
   vertex 0.0682484 -0.0123533 0.659679
   vertex 0.0705437 -0.0137077 0.651417
   vertex 0.0749388 -0.0108351 0.650594
  endloop
 endfacet
 facet normal -0.421777 0.868744 -0.259594
  outer loop
   vertex 0.0628836 -0.0147623 0.660333
   vertex 0.0682484 -0.0123533 0.659679
   vertex 0.0705437 -0.0137077 0.651417
  endloop
 endfacet
 facet normal 0.754735 0.0491232 0.654188
  outer loop
   vertex 0.0628836 -0.0147623 0.660333
   vertex 0.065695 -0.0188933 0.6574
   vertex 0.0705437 -0.0137077 0.651417
  endloop
 endfacet
 facet normal -0.813483 -0.155733 -0.560351
  outer loop
   vertex 0.0611117 -0.0186998 0.664
   vertex 0.0628836 -0.0147623 0.660333
   vertex 0.065695 -0.0188933 0.6574
  endloop
 endfacet
 facet normal 0.688913 -0.530468 0.493967
  outer loop
   vertex 0.0611117 -0.0186998 0.664
   vertex 0.0622365 -0.0205913 0.6604
   vertex 0.065695 -0.0188933 0.6574
  endloop
 endfacet
 facet normal 0.579916 -0.367623 0.727015
  outer loop
   vertex 0.0609355 -0.0278581 0.657763
   vertex 0.067868 -0.027711 0.652308
   vertex 0.0622365 -0.0205913 0.6604
  endloop
 endfacet
 facet normal -0.618545 0.0153977 -0.785599
  outer loop
   vertex 0.0615823 -0.0357129 0.6571
   vertex 0.0609355 -0.0278581 0.657763
   vertex 0.067868 -0.027711 0.652308
  endloop
 endfacet
 facet normal -0.216451 -0.37084 -0.90312
  outer loop
   vertex 0.0673839 -0.0373136 0.656367
   vertex 0.0615823 -0.0357129 0.6571
   vertex 0.067868 -0.027711 0.652308
  endloop
 endfacet
 facet normal -0.0539843 -0.38647 -0.920721
  outer loop
   vertex 0.0688939 -0.0338921 0.654842
   vertex 0.0673839 -0.0373136 0.656367
   vertex 0.067868 -0.027711 0.652308
  endloop
 endfacet
 facet normal -0.127253 -0.39429 -0.910133
  outer loop
   vertex 0.0742402 -0.0388034 0.656222
   vertex 0.0688939 -0.0338921 0.654842
   vertex 0.067868 -0.027711 0.652308
  endloop
 endfacet
 facet normal -0.115805 -0.389047 -0.91391
  outer loop
   vertex 0.0762152 -0.0352874 0.654475
   vertex 0.0742402 -0.0388034 0.656222
   vertex 0.067868 -0.027711 0.652308
  endloop
 endfacet
 facet normal 0.13597 0.408075 0.902766
  outer loop
   vertex 0.0762152 -0.0352874 0.654475
   vertex 0.0759943 -0.0277918 0.65112
   vertex 0.067868 -0.027711 0.652308
  endloop
 endfacet
 facet normal -0.251009 -0.401607 -0.880742
  outer loop
   vertex 0.0827232 -0.0405059 0.655
   vertex 0.0762152 -0.0352874 0.654475
   vertex 0.0759943 -0.0277918 0.65112
  endloop
 endfacet
 facet normal 0.190572 -0.192862 -0.962542
  outer loop
   vertex 0.0837722 -0.0359047 0.654286
   vertex 0.0827232 -0.0405059 0.655
   vertex 0.0759943 -0.0277918 0.65112
  endloop
 endfacet
 facet normal -0.0469362 -0.401822 -0.914514
  outer loop
   vertex 0.0841905 -0.0279065 0.65075
   vertex 0.0837722 -0.0359047 0.654286
   vertex 0.0759943 -0.0277918 0.65112
  endloop
 endfacet
 facet normal -0.047138 -0.232181 -0.97153
  outer loop
   vertex 0.0843131 -0.0211318 0.649125
   vertex 0.0841905 -0.0279065 0.65075
   vertex 0.0759943 -0.0277918 0.65112
  endloop
 endfacet
 facet normal -0.052423 0.346113 0.936727
  outer loop
   vertex 0.0843131 -0.0211318 0.649125
   vertex 0.0769736 -0.0220478 0.649053
   vertex 0.0759943 -0.0277918 0.65112
  endloop
 endfacet
 facet normal -0.0317999 -0.232585 -0.972056
  outer loop
   vertex 0.0923463 -0.0277628 0.650449
   vertex 0.0841905 -0.0279065 0.65075
   vertex 0.0843131 -0.0211318 0.649125
  endloop
 endfacet
 facet normal -0.0156083 -0.213902 -0.97673
  outer loop
   vertex 0.0920698 -0.0211273 0.649
   vertex 0.0923463 -0.0277628 0.650449
   vertex 0.0843131 -0.0211318 0.649125
  endloop
 endfacet
 facet normal -0.012659 -0.590297 -0.807087
  outer loop
   vertex 0.0918639 -0.017182 0.646118
   vertex 0.0920698 -0.0211273 0.649
   vertex 0.0843131 -0.0211318 0.649125
  endloop
 endfacet
 facet normal -0.0110834 0.619066 0.785261
  outer loop
   vertex 0.0918639 -0.017182 0.646118
   vertex 0.083705 -0.0171788 0.646
   vertex 0.0843131 -0.0211318 0.649125
  endloop
 endfacet
 facet normal 0.0131888 -0.380199 -0.924811
  outer loop
   vertex 0.0920576 -0.011776 0.643898
   vertex 0.0918639 -0.017182 0.646118
   vertex 0.083705 -0.0171788 0.646
  endloop
 endfacet
 facet normal 0.0707 0.264858 0.961692
  outer loop
   vertex 0.0920576 -0.011776 0.643898
   vertex 0.0840526 -0.0118954 0.644519
   vertex 0.083705 -0.0171788 0.646
  endloop
 endfacet
 facet normal -0.0732489 0.536862 -0.840484
  outer loop
   vertex 0.0915575 -0.00718368 0.646875
   vertex 0.0920576 -0.011776 0.643898
   vertex 0.0840526 -0.0118954 0.644519
  endloop
 endfacet
 facet normal -0.352534 0.80232 -0.481666
  outer loop
   vertex 0.0921777 -0.00419462 0.6514
   vertex 0.0915575 -0.00718368 0.646875
   vertex 0.0840526 -0.0118954 0.644519
  endloop
 endfacet
 facet normal 0.505008 0.214225 -0.836107
  outer loop
   vertex 0.0862212 -0.00732598 0.647
   vertex 0.0921777 -0.00419462 0.6514
   vertex 0.0840526 -0.0118954 0.644519
  endloop
 endfacet
 facet normal -0.592562 0.582983 -0.555878
  outer loop
   vertex 0.084256 -0.00518062 0.651345
   vertex 0.0862212 -0.00732598 0.647
   vertex 0.0840526 -0.0118954 0.644519
  endloop
 endfacet
 facet normal 0.207291 -0.700459 0.682926
  outer loop
   vertex 0.084256 -0.00518062 0.651345
   vertex 0.0808349 -0.00847919 0.649
   vertex 0.0840526 -0.0118954 0.644519
  endloop
 endfacet
 facet normal -0.105204 0.871964 -0.478133
  outer loop
   vertex 0.0921777 -0.00419462 0.6514
   vertex 0.0862212 -0.00732598 0.647
   vertex 0.084256 -0.00518062 0.651345
  endloop
 endfacet
 facet normal -0.10487 0.869533 -0.482612
  outer loop
   vertex 0.0921576 -0.000987952 0.657182
   vertex 0.0921777 -0.00419462 0.6514
   vertex 0.084256 -0.00518062 0.651345
  endloop
 endfacet
 facet normal -0.0822192 0.858844 -0.505596
  outer loop
   vertex 0.0859966 0.000768077 0.661167
   vertex 0.0921576 -0.000987952 0.657182
   vertex 0.084256 -0.00518062 0.651345
  endloop
 endfacet
 facet normal -0.435384 0.802142 -0.408667
  outer loop
   vertex 0.0834683 -0.00161106 0.65919
   vertex 0.0859966 0.000768077 0.661167
   vertex 0.084256 -0.00518062 0.651345
  endloop
 endfacet
 facet normal 0.328595 -0.846805 0.418266
  outer loop
   vertex 0.0834683 -0.00161106 0.65919
   vertex 0.0779276 -0.00677385 0.653091
   vertex 0.084256 -0.00518062 0.651345
  endloop
 endfacet
 facet normal 0.361494 -0.847402 0.388887
  outer loop
   vertex 0.0834683 -0.00161106 0.65919
   vertex 0.076211 -0.0047145 0.659174
   vertex 0.0779276 -0.00677385 0.653091
  endloop
 endfacet
 facet normal -0.335275 0.786776 -0.518241
  outer loop
   vertex 0.0859966 0.000768077 0.661167
   vertex 0.0834683 -0.00161106 0.65919
   vertex 0.076211 -0.0047145 0.659174
  endloop
 endfacet
 facet normal -0.351079 0.802168 -0.48298
  outer loop
   vertex 0.0776026 0.00135912 0.66825
   vertex 0.0859966 0.000768077 0.661167
   vertex 0.076211 -0.0047145 0.659174
  endloop
 endfacet
 facet normal -0.484002 0.75974 -0.434208
  outer loop
   vertex 0.0749348 -0.00196924 0.6654
   vertex 0.0776026 0.00135912 0.66825
   vertex 0.076211 -0.0047145 0.659174
  endloop
 endfacet
 facet normal -0.628498 0.655917 -0.418047
  outer loop
   vertex 0.069322 -0.00515109 0.668846
   vertex 0.0749348 -0.00196924 0.6654
   vertex 0.076211 -0.0047145 0.659174
  endloop
 endfacet
 facet normal -0.510809 0.794682 -0.327957
  outer loop
   vertex 0.0715463 -0.00709691 0.660667
   vertex 0.069322 -0.00515109 0.668846
   vertex 0.076211 -0.0047145 0.659174
  endloop
 endfacet
 facet normal 0.513027 -0.780018 0.358295
  outer loop
   vertex 0.0715463 -0.00709691 0.660667
   vertex 0.0725648 -0.00857064 0.656
   vertex 0.076211 -0.0047145 0.659174
  endloop
 endfacet
 facet normal 0.766761 -0.544865 0.33941
  outer loop
   vertex 0.0715463 -0.00709691 0.660667
   vertex 0.0682484 -0.0123533 0.659679
   vertex 0.0725648 -0.00857064 0.656
  endloop
 endfacet
 facet normal -0.767215 0.544935 -0.338271
  outer loop
   vertex 0.069322 -0.00515109 0.668846
   vertex 0.0715463 -0.00709691 0.660667
   vertex 0.0682484 -0.0123533 0.659679
  endloop
 endfacet
 facet normal -0.731749 0.574959 -0.366012
  outer loop
   vertex 0.0661603 -0.0103103 0.667063
   vertex 0.069322 -0.00515109 0.668846
   vertex 0.0682484 -0.0123533 0.659679
  endloop
 endfacet
 facet normal 0.418924 -0.837748 0.350258
  outer loop
   vertex 0.0661603 -0.0103103 0.667063
   vertex 0.0628836 -0.0147623 0.660333
   vertex 0.0682484 -0.0123533 0.659679
  endloop
 endfacet
 facet normal 0.868339 -0.485437 -0.101674
  outer loop
   vertex 0.0661603 -0.0103103 0.667063
   vertex 0.0611117 -0.0186998 0.664
   vertex 0.0628836 -0.0147623 0.660333
  endloop
 endfacet
 facet normal -0.104599 0.0751257 -0.991673
  outer loop
   vertex 0.0673839 -0.0373136 0.656367
   vertex 0.0615823 -0.0357129 0.6571
   vertex 0.0609355 -0.0278581 0.657763
  endloop
 endfacet
 facet normal -0.256254 -0.0320811 -0.966077
  outer loop
   vertex 0.063437 -0.0436773 0.657625
   vertex 0.0609355 -0.0278581 0.657763
   vertex 0.0673839 -0.0373136 0.656367
  endloop
 endfacet
 facet normal 0.156563 -0.284133 -0.945916
  outer loop
   vertex 0.0682606 -0.0441707 0.658572
   vertex 0.063437 -0.0436773 0.657625
   vertex 0.0673839 -0.0373136 0.656367
  endloop
 endfacet
 facet normal -0.0883915 -0.31513 -0.944923
  outer loop
   vertex 0.0742402 -0.0388034 0.656222
   vertex 0.0682606 -0.0441707 0.658572
   vertex 0.0673839 -0.0373136 0.656367
  endloop
 endfacet
 facet normal 0.0994639 0.368067 0.924464
  outer loop
   vertex 0.0742402 -0.0388034 0.656222
   vertex 0.0688939 -0.0338921 0.654842
   vertex 0.0673839 -0.0373136 0.656367
  endloop
 endfacet
 facet normal 0.00438601 -0.405076 -0.914272
  outer loop
   vertex 0.0762948 -0.0441753 0.658612
   vertex 0.0682606 -0.0441707 0.658572
   vertex 0.0742402 -0.0388034 0.656222
  endloop
 endfacet
 facet normal -0.21697 -0.464875 -0.85838
  outer loop
   vertex 0.0827232 -0.0405059 0.655
   vertex 0.0762948 -0.0441753 0.658612
   vertex 0.0742402 -0.0388034 0.656222
  endloop
 endfacet
 facet normal 0.201038 0.34299 0.917574
  outer loop
   vertex 0.0827232 -0.0405059 0.655
   vertex 0.0762152 -0.0352874 0.654475
   vertex 0.0742402 -0.0388034 0.656222
  endloop
 endfacet
 facet normal -0.0414957 -0.663055 -0.74742
  outer loop
   vertex 0.0842987 -0.044221 0.658208
   vertex 0.0762948 -0.0441753 0.658612
   vertex 0.0827232 -0.0405059 0.655
  endloop
 endfacet
 facet normal -0.0160736 -0.657407 -0.753364
  outer loop
   vertex 0.0921855 -0.0440559 0.657896
   vertex 0.0842987 -0.044221 0.658208
   vertex 0.0827232 -0.0405059 0.655
  endloop
 endfacet
 facet normal 0.124411 -0.406698 -0.905052
  outer loop
   vertex 0.0916577 -0.0358257 0.654125
   vertex 0.0921855 -0.0440559 0.657896
   vertex 0.0827232 -0.0405059 0.655
  endloop
 endfacet
 facet normal 0.018652 0.149213 0.988629
  outer loop
   vertex 0.0916577 -0.0358257 0.654125
   vertex 0.0837722 -0.0359047 0.654286
   vertex 0.0827232 -0.0405059 0.655
  endloop
 endfacet
 facet normal -0.014599 -0.403641 -0.914801
  outer loop
   vertex 0.0841905 -0.0279065 0.65075
   vertex 0.0916577 -0.0358257 0.654125
   vertex 0.0837722 -0.0359047 0.654286
  endloop
 endfacet
 facet normal 0.0426513 -0.357404 -0.932975
  outer loop
   vertex 0.0996235 -0.0350296 0.654184
   vertex 0.0916577 -0.0358257 0.654125
   vertex 0.0841905 -0.0279065 0.65075
  endloop
 endfacet
 facet normal 0.0240794 0.476013 0.879109
  outer loop
   vertex 0.0996235 -0.0350296 0.654184
   vertex 0.0923463 -0.0277628 0.650449
   vertex 0.0841905 -0.0279065 0.65075
  endloop
 endfacet
 facet normal 0.0339468 -0.429813 -0.902279
  outer loop
   vertex 0.100325 -0.0277759 0.650755
   vertex 0.0996235 -0.0350296 0.654184
   vertex 0.0923463 -0.0277628 0.650449
  endloop
 endfacet
 facet normal 0.0369559 -0.231323 -0.972175
  outer loop
   vertex 0.107933 -0.0217049 0.6496
   vertex 0.100325 -0.0277759 0.650755
   vertex 0.0923463 -0.0277628 0.650449
  endloop
 endfacet
 facet normal 0.0330961 -0.221725 -0.974547
  outer loop
   vertex 0.0998846 -0.021622 0.649308
   vertex 0.107933 -0.0217049 0.6496
   vertex 0.0923463 -0.0277628 0.650449
  endloop
 endfacet
 facet normal 0.389614 -0.606994 -0.692646
  outer loop
   vertex 0.100164 -0.0175769 0.64592
   vertex 0.0998846 -0.021622 0.649308
   vertex 0.0923463 -0.0277628 0.650449
  endloop
 endfacet
 facet normal 0.262944 0.216245 0.940265
  outer loop
   vertex 0.100164 -0.0175769 0.64592
   vertex 0.0920698 -0.0211273 0.649
   vertex 0.0923463 -0.0277628 0.650449
  endloop
 endfacet
 facet normal -0.122941 -0.475439 -0.871116
  outer loop
   vertex 0.0920576 -0.011776 0.643898
   vertex 0.100164 -0.0175769 0.64592
   vertex 0.0920698 -0.0211273 0.649
  endloop
 endfacet
 facet normal -0.954397 0.142025 0.262593
  outer loop
   vertex 0.0920576 -0.011776 0.643898
   vertex 0.0918639 -0.017182 0.646118
   vertex 0.0920698 -0.0211273 0.649
  endloop
 endfacet
 facet normal 0.0974266 -0.203431 -0.97423
  outer loop
   vertex 0.0999831 -0.0123679 0.644814
   vertex 0.100164 -0.0175769 0.64592
   vertex 0.0920576 -0.011776 0.643898
  endloop
 endfacet
 facet normal 0.129714 0.770174 -0.624505
  outer loop
   vertex 0.10176 -0.00880967 0.649572
   vertex 0.0999831 -0.0123679 0.644814
   vertex 0.0920576 -0.011776 0.643898
  endloop
 endfacet
 facet normal 0.1794 0.711884 -0.678997
  outer loop
   vertex 0.0996188 -0.00561039 0.65236
   vertex 0.10176 -0.00880967 0.649572
   vertex 0.0920576 -0.011776 0.643898
  endloop
 endfacet
 facet normal -0.404884 -0.528015 0.746505
  outer loop
   vertex 0.0996188 -0.00561039 0.65236
   vertex 0.0915575 -0.00718368 0.646875
   vertex 0.0920576 -0.011776 0.643898
  endloop
 endfacet
 facet normal -0.224018 -0.798785 0.558354
  outer loop
   vertex 0.0996188 -0.00561039 0.65236
   vertex 0.0921777 -0.00419462 0.6514
   vertex 0.0915575 -0.00718368 0.646875
  endloop
 endfacet
 facet normal 0.224018 0.814193 -0.535635
  outer loop
   vertex 0.100715 -0.00195925 0.658368
   vertex 0.0996188 -0.00561039 0.65236
   vertex 0.0921777 -0.00419462 0.6514
  endloop
 endfacet
 facet normal 0.213852 0.82313 -0.526046
  outer loop
   vertex 0.0975892 0.000960713 0.661667
   vertex 0.100715 -0.00195925 0.658368
   vertex 0.0921777 -0.00419462 0.6514
  endloop
 endfacet
 facet normal -0.0861679 -0.871384 0.482975
  outer loop
   vertex 0.0975892 0.000960713 0.661667
   vertex 0.0921576 -0.000987952 0.657182
   vertex 0.0921777 -0.00419462 0.6514
  endloop
 endfacet
 facet normal 0.0848905 0.872175 -0.481772
  outer loop
   vertex 0.0918172 0.00119675 0.661077
   vertex 0.0975892 0.000960713 0.661667
   vertex 0.0921576 -0.000987952 0.657182
  endloop
 endfacet
 facet normal 0.0714656 -0.867269 0.492683
  outer loop
   vertex 0.0918172 0.00119675 0.661077
   vertex 0.0859966 0.000768077 0.661167
   vertex 0.0921576 -0.000987952 0.657182
  endloop
 endfacet
 facet normal -0.070481 0.846608 -0.527529
  outer loop
   vertex 0.0918653 0.0052396 0.667559
   vertex 0.0918172 0.00119675 0.661077
   vertex 0.0859966 0.000768077 0.661167
  endloop
 endfacet
 facet normal -0.181764 0.876312 -0.446137
  outer loop
   vertex 0.0839249 0.00356267 0.6675
   vertex 0.0918653 0.0052396 0.667559
   vertex 0.0859966 0.000768077 0.661167
  endloop
 endfacet
 facet normal 0.339666 -0.814418 0.470478
  outer loop
   vertex 0.0839249 0.00356267 0.6675
   vertex 0.0776026 0.00135912 0.66825
   vertex 0.0859966 0.000768077 0.661167
  endloop
 endfacet
 facet normal -0.336766 0.793929 -0.506226
  outer loop
   vertex 0.0831028 0.00703971 0.6735
   vertex 0.0839249 0.00356267 0.6675
   vertex 0.0776026 0.00135912 0.66825
  endloop
 endfacet
 facet normal -0.421135 0.801003 -0.425488
  outer loop
   vertex 0.0759139 0.00440055 0.675647
   vertex 0.0831028 0.00703971 0.6735
   vertex 0.0776026 0.00135912 0.66825
  endloop
 endfacet
 facet normal -0.517494 0.743372 -0.42379
  outer loop
   vertex 0.0701832 0.00126395 0.677143
   vertex 0.0759139 0.00440055 0.675647
   vertex 0.0776026 0.00135912 0.66825
  endloop
 endfacet
 facet normal 0.504694 -0.758125 0.412953
  outer loop
   vertex 0.0701832 0.00126395 0.677143
   vertex 0.0749348 -0.00196924 0.6654
   vertex 0.0776026 0.00135912 0.66825
  endloop
 endfacet
 facet normal 0.630782 -0.644182 0.432601
  outer loop
   vertex 0.0701832 0.00126395 0.677143
   vertex 0.069322 -0.00515109 0.668846
   vertex 0.0749348 -0.00196924 0.6654
  endloop
 endfacet
 facet normal -0.632023 0.643437 -0.431897
  outer loop
   vertex 0.066573 -0.00302624 0.676035
   vertex 0.0701832 0.00126395 0.677143
   vertex 0.069322 -0.00515109 0.668846
  endloop
 endfacet
 facet normal -0.933806 0.00225275 -0.357774
  outer loop
   vertex 0.0646535 -0.0100836 0.681
   vertex 0.066573 -0.00302624 0.676035
   vertex 0.069322 -0.00515109 0.668846
  endloop
 endfacet
 facet normal -0.847953 0.517272 -0.115784
  outer loop
   vertex 0.0644636 -0.0108425 0.679
   vertex 0.0646535 -0.0100836 0.681
   vertex 0.069322 -0.00515109 0.668846
  endloop
 endfacet
 facet normal 0.833982 -0.543674 0.094301
  outer loop
   vertex 0.0644636 -0.0108425 0.679
   vertex 0.0661603 -0.0103103 0.667063
   vertex 0.069322 -0.00515109 0.668846
  endloop
 endfacet
 facet normal -0.900052 0.4219 -0.109121
  outer loop
   vertex 0.0615065 -0.0171509 0.679
   vertex 0.0644636 -0.0108425 0.679
   vertex 0.0661603 -0.0103103 0.667063
  endloop
 endfacet
 facet normal 0.851236 -0.523825 0.0316838
  outer loop
   vertex 0.0615065 -0.0171509 0.679
   vertex 0.0611117 -0.0186998 0.664
   vertex 0.0661603 -0.0103103 0.667063
  endloop
 endfacet
 facet normal -0.170949 0.185286 0.967701
  outer loop
   vertex 0.0690876 -0.0510478 0.660034
   vertex 0.0682606 -0.0441707 0.658572
   vertex 0.063437 -0.0436773 0.657625
  endloop
 endfacet
 facet normal 0.23789 -0.174633 -0.955464
  outer loop
   vertex 0.0756506 -0.0505168 0.661571
   vertex 0.0690876 -0.0510478 0.660034
   vertex 0.0682606 -0.0441707 0.658572
  endloop
 endfacet
 facet normal -0.00433383 0.42323 0.906012
  outer loop
   vertex 0.0756506 -0.0505168 0.661571
   vertex 0.0762948 -0.0441753 0.658612
   vertex 0.0682606 -0.0441707 0.658572
  endloop
 endfacet
 facet normal 0.074722 -0.427915 -0.900725
  outer loop
   vertex 0.0833642 -0.0542817 0.664
   vertex 0.0756506 -0.0505168 0.661571
   vertex 0.0762948 -0.0441753 0.658612
  endloop
 endfacet
 facet normal -0.166986 -0.552241 -0.81679
  outer loop
   vertex 0.0839341 -0.0506798 0.661448
   vertex 0.0833642 -0.0542817 0.664
   vertex 0.0762948 -0.0441753 0.658612
  endloop
 endfacet
 facet normal 0.0476456 0.445705 0.893911
  outer loop
   vertex 0.0839341 -0.0506798 0.661448
   vertex 0.0842987 -0.044221 0.658208
   vertex 0.0762948 -0.0441753 0.658612
  endloop
 endfacet
 facet normal -0.0749082 -0.443723 -0.893028
  outer loop
   vertex 0.0916587 -0.0513188 0.661118
   vertex 0.0839341 -0.0506798 0.661448
   vertex 0.0842987 -0.044221 0.658208
  endloop
 endfacet
 facet normal 0.0277699 0.403643 0.914495
  outer loop
   vertex 0.0916587 -0.0513188 0.661118
   vertex 0.0921855 -0.0440559 0.657896
   vertex 0.0842987 -0.044221 0.658208
  endloop
 endfacet
 facet normal 0.159611 -0.409935 -0.898041
  outer loop
   vertex 0.100054 -0.0543643 0.664
   vertex 0.0916587 -0.0513188 0.661118
   vertex 0.0921855 -0.0440559 0.657896
  endloop
 endfacet
 facet normal -0.185322 -0.601558 -0.777035
  outer loop
   vertex 0.0996397 -0.0506848 0.66125
   vertex 0.100054 -0.0543643 0.664
   vertex 0.0921855 -0.0440559 0.657896
  endloop
 endfacet
 facet normal 0.0847193 -0.372362 -0.924213
  outer loop
   vertex 0.100076 -0.044103 0.658638
   vertex 0.0996397 -0.0506848 0.66125
   vertex 0.0921855 -0.0440559 0.657896
  endloop
 endfacet
 facet normal 0.0822901 -0.424457 -0.901701
  outer loop
   vertex 0.100345 -0.0390258 0.656273
   vertex 0.100076 -0.044103 0.658638
   vertex 0.0921855 -0.0440559 0.657896
  endloop
 endfacet
 facet normal 0.0845018 -0.427512 -0.900052
  outer loop
   vertex 0.0954198 -0.0394249 0.656
   vertex 0.100345 -0.0390258 0.656273
   vertex 0.0921855 -0.0440559 0.657896
  endloop
 endfacet
 facet normal -0.0581292 0.412751 0.908987
  outer loop
   vertex 0.0954198 -0.0394249 0.656
   vertex 0.0916577 -0.0358257 0.654125
   vertex 0.0921855 -0.0440559 0.657896
  endloop
 endfacet
 facet normal 0.0824788 -0.391255 -0.916579
  outer loop
   vertex 0.100345 -0.0390258 0.656273
   vertex 0.0954198 -0.0394249 0.656
   vertex 0.0916577 -0.0358257 0.654125
  endloop
 endfacet
 facet normal -0.0520932 0.455157 0.888886
  outer loop
   vertex 0.100345 -0.0390258 0.656273
   vertex 0.0996235 -0.0350296 0.654184
   vertex 0.0916577 -0.0358257 0.654125
  endloop
 endfacet
 facet normal 0.05599 -0.454504 -0.888983
  outer loop
   vertex 0.108199 -0.0385025 0.6565
   vertex 0.100345 -0.0390258 0.656273
   vertex 0.0996235 -0.0350296 0.654184
  endloop
 endfacet
 facet normal 0.0417774 -0.480824 -0.875821
  outer loop
   vertex 0.10763 -0.0344685 0.654258
   vertex 0.108199 -0.0385025 0.6565
   vertex 0.0996235 -0.0350296 0.654184
  endloop
 endfacet
 facet normal -0.0384643 0.4301 0.901961
  outer loop
   vertex 0.10763 -0.0344685 0.654258
   vertex 0.100325 -0.0277759 0.650755
   vertex 0.0996235 -0.0350296 0.654184
  endloop
 endfacet
 facet normal 0.0312143 -0.436539 -0.899144
  outer loop
   vertex 0.10823 -0.0277155 0.651
   vertex 0.10763 -0.0344685 0.654258
   vertex 0.100325 -0.0277759 0.650755
  endloop
 endfacet
 facet normal -0.031914 0.225308 0.973765
  outer loop
   vertex 0.10823 -0.0277155 0.651
   vertex 0.107933 -0.0217049 0.6496
   vertex 0.100325 -0.0277759 0.650755
  endloop
 endfacet
 facet normal 0.125523 -0.219229 -0.967565
  outer loop
   vertex 0.116201 -0.0280242 0.652104
   vertex 0.10823 -0.0277155 0.651
   vertex 0.107933 -0.0217049 0.6496
  endloop
 endfacet
 facet normal 0.140135 -0.200891 -0.969539
  outer loop
   vertex 0.115367 -0.0200583 0.650333
   vertex 0.116201 -0.0280242 0.652104
   vertex 0.107933 -0.0217049 0.6496
  endloop
 endfacet
 facet normal 0.0194385 0.33226 -0.942987
  outer loop
   vertex 0.114794 -0.0128267 0.65287
   vertex 0.115367 -0.0200583 0.650333
   vertex 0.107933 -0.0217049 0.6496
  endloop
 endfacet
 facet normal 0.278063 0.13534 -0.95098
  outer loop
   vertex 0.108964 -0.00997034 0.651571
   vertex 0.114794 -0.0128267 0.65287
   vertex 0.107933 -0.0217049 0.6496
  endloop
 endfacet
 facet normal 0.993749 -0.0731623 -0.084319
  outer loop
   vertex 0.107899 -0.0177971 0.645818
   vertex 0.108964 -0.00997034 0.651571
   vertex 0.107933 -0.0217049 0.6496
  endloop
 endfacet
 facet normal -0.0189243 0.695198 0.718569
  outer loop
   vertex 0.107899 -0.0177971 0.645818
   vertex 0.0998846 -0.021622 0.649308
   vertex 0.107933 -0.0217049 0.6496
  endloop
 endfacet
 facet normal -0.322325 -0.173551 -0.930584
  outer loop
   vertex 0.107287 -0.013096 0.645154
   vertex 0.107899 -0.0177971 0.645818
   vertex 0.0998846 -0.021622 0.649308
  endloop
 endfacet
 facet normal -0.314305 0.62219 0.717002
  outer loop
   vertex 0.107287 -0.013096 0.645154
   vertex 0.100164 -0.0175769 0.64592
   vertex 0.0998846 -0.021622 0.649308
  endloop
 endfacet
 facet normal -0.534529 0.806381 -0.25304
  outer loop
   vertex 0.108964 -0.00997034 0.651571
   vertex 0.107287 -0.013096 0.645154
   vertex 0.100164 -0.0175769 0.64592
  endloop
 endfacet
 facet normal 0.953449 0.0833625 -0.289803
  outer loop
   vertex 0.108964 -0.00997034 0.651571
   vertex 0.107899 -0.0177971 0.645818
   vertex 0.107287 -0.013096 0.645154
  endloop
 endfacet
 facet normal -0.619103 0.142444 0.772283
  outer loop
   vertex 0.108964 -0.00997034 0.651571
   vertex 0.0999831 -0.0123679 0.644814
   vertex 0.100164 -0.0175769 0.64592
  endloop
 endfacet
 facet normal 0.290062 0.712902 -0.638463
  outer loop
   vertex 0.105685 -0.00658912 0.653857
   vertex 0.108964 -0.00997034 0.651571
   vertex 0.0999831 -0.0123679 0.644814
  endloop
 endfacet
 facet normal -0.299566 -0.706971 0.640665
  outer loop
   vertex 0.105685 -0.00658912 0.653857
   vertex 0.10176 -0.00880967 0.649572
   vertex 0.0999831 -0.0123679 0.644814
  endloop
 endfacet
 facet normal -0.272547 -0.729346 0.627513
  outer loop
   vertex 0.105685 -0.00658912 0.653857
   vertex 0.0996188 -0.00561039 0.65236
   vertex 0.10176 -0.00880967 0.649572
  endloop
 endfacet
 facet normal 0.244548 0.874285 -0.419311
  outer loop
   vertex 0.107707 -0.00471487 0.658944
   vertex 0.105685 -0.00658912 0.653857
   vertex 0.0996188 -0.00561039 0.65236
  endloop
 endfacet
 facet normal -0.347974 -0.771662 0.532401
  outer loop
   vertex 0.107707 -0.00471487 0.658944
   vertex 0.100715 -0.00195925 0.658368
   vertex 0.0996188 -0.00561039 0.65236
  endloop
 endfacet
 facet normal 0.358209 0.812949 -0.45913
  outer loop
   vertex 0.109039 -0.00188158 0.665
   vertex 0.107707 -0.00471487 0.658944
   vertex 0.100715 -0.00195925 0.658368
  endloop
 endfacet
 facet normal 0.444524 0.694228 -0.56608
  outer loop
   vertex 0.106593 0.00273127 0.668737
   vertex 0.109039 -0.00188158 0.665
   vertex 0.100715 -0.00195925 0.658368
  endloop
 endfacet
 facet normal 0.30317 0.791877 -0.530113
  outer loop
   vertex 0.100288 0.00390599 0.666886
   vertex 0.106593 0.00273127 0.668737
   vertex 0.100715 -0.00195925 0.658368
  endloop
 endfacet
 facet normal -0.178474 -0.814541 0.551969
  outer loop
   vertex 0.100288 0.00390599 0.666886
   vertex 0.0975892 0.000960713 0.661667
   vertex 0.100715 -0.00195925 0.658368
  endloop
 endfacet
 facet normal 0.0700446 0.852813 -0.517497
  outer loop
   vertex 0.100237 0.00762038 0.673
   vertex 0.100288 0.00390599 0.666886
   vertex 0.0975892 0.000960713 0.661667
  endloop
 endfacet
 facet normal -0.0878628 -0.849729 0.519848
  outer loop
   vertex 0.100237 0.00762038 0.673
   vertex 0.0918172 0.00119675 0.661077
   vertex 0.0975892 0.000960713 0.661667
  endloop
 endfacet
 facet normal -0.102584 -0.843666 0.526977
  outer loop
   vertex 0.100237 0.00762038 0.673
   vertex 0.0918653 0.0052396 0.667559
   vertex 0.0918172 0.00119675 0.661077
  endloop
 endfacet
 facet normal 0.0460126 0.887243 -0.459002
  outer loop
   vertex 0.0995575 0.00968807 0.676929
   vertex 0.100237 0.00762038 0.673
   vertex 0.0918653 0.0052396 0.667559
  endloop
 endfacet
 facet normal 0.0332419 0.892014 -0.450784
  outer loop
   vertex 0.0920227 0.00989263 0.676778
   vertex 0.0995575 0.00968807 0.676929
   vertex 0.0918653 0.0052396 0.667559
  endloop
 endfacet
 facet normal -0.0062038 0.892761 -0.450487
  outer loop
   vertex 0.0846162 0.0099002 0.676895
   vertex 0.0920227 0.00989263 0.676778
   vertex 0.0918653 0.0052396 0.667559
  endloop
 endfacet
 facet normal -0.295382 0.743186 -0.600353
  outer loop
   vertex 0.0794068 0.00926105 0.678667
   vertex 0.0846162 0.0099002 0.676895
   vertex 0.0918653 0.0052396 0.667559
  endloop
 endfacet
 facet normal 0.175048 -0.846499 0.502791
  outer loop
   vertex 0.0794068 0.00926105 0.678667
   vertex 0.0839249 0.00356267 0.6675
   vertex 0.0918653 0.0052396 0.667559
  endloop
 endfacet
 facet normal 0.215145 -0.83188 0.511555
  outer loop
   vertex 0.0831028 0.00703971 0.6735
   vertex 0.0794068 0.00926105 0.678667
   vertex 0.0839249 0.00356267 0.6675
  endloop
 endfacet
 facet normal 0.427502 -0.678417 0.597488
  outer loop
   vertex 0.0794068 0.00926105 0.678667
   vertex 0.0759139 0.00440055 0.675647
   vertex 0.0831028 0.00703971 0.6735
  endloop
 endfacet
 facet normal -0.603495 0.686098 -0.406279
  outer loop
   vertex 0.0770915 0.0102981 0.683857
   vertex 0.0794068 0.00926105 0.678667
   vertex 0.0759139 0.00440055 0.675647
  endloop
 endfacet
 facet normal -0.587337 0.694895 -0.414916
  outer loop
   vertex 0.0733372 0.00681219 0.683333
   vertex 0.0770915 0.0102981 0.683857
   vertex 0.0759139 0.00440055 0.675647
  endloop
 endfacet
 facet normal -0.563119 0.715601 -0.413294
  outer loop
   vertex 0.0686116 0.00347856 0.684
   vertex 0.0733372 0.00681219 0.683333
   vertex 0.0759139 0.00440055 0.675647
  endloop
 endfacet
 facet normal 0.518509 -0.771787 0.368094
  outer loop
   vertex 0.0686116 0.00347856 0.684
   vertex 0.0701832 0.00126395 0.677143
   vertex 0.0759139 0.00440055 0.675647
  endloop
 endfacet
 facet normal -0.567965 0.736228 -0.367945
  outer loop
   vertex 0.0630256 -0.00342965 0.6788
   vertex 0.0686116 0.00347856 0.684
   vertex 0.0701832 0.00126395 0.677143
  endloop
 endfacet
 facet normal 0.532459 -0.601845 0.595205
  outer loop
   vertex 0.0630256 -0.00342965 0.6788
   vertex 0.066573 -0.00302624 0.676035
   vertex 0.0701832 0.00126395 0.677143
  endloop
 endfacet
 facet normal 0.541329 0.380366 0.749857
  outer loop
   vertex 0.0630256 -0.00342965 0.6788
   vertex 0.0646535 -0.0100836 0.681
   vertex 0.066573 -0.00302624 0.676035
  endloop
 endfacet
 facet normal -0.683088 -0.374442 -0.627044
  outer loop
   vertex 0.0616399 -0.00626061 0.682
   vertex 0.0630256 -0.00342965 0.6788
   vertex 0.0646535 -0.0100836 0.681
  endloop
 endfacet
 facet normal -0.220115 0.080784 -0.972123
  outer loop
   vertex 0.0601213 -0.0117877 0.681885
   vertex 0.0616399 -0.00626061 0.682
   vertex 0.0646535 -0.0100836 0.681
  endloop
 endfacet
 facet normal -0.387493 0.758816 -0.523495
  outer loop
   vertex 0.0631118 -0.0122506 0.679
   vertex 0.0601213 -0.0117877 0.681885
   vertex 0.0646535 -0.0100836 0.681
  endloop
 endfacet
 facet normal 0.70814 -0.67982 0.190741
  outer loop
   vertex 0.0631118 -0.0122506 0.679
   vertex 0.0644636 -0.0108425 0.679
   vertex 0.0646535 -0.0100836 0.681
  endloop
 endfacet
 facet normal -6.69334e-05 2.19265e-05 1
  outer loop
   vertex 0.0631118 -0.0122506 0.679
   vertex 0.0615065 -0.0171509 0.679
   vertex 0.0644636 -0.0108425 0.679
  endloop
 endfacet
 facet normal -0.660265 0.216294 -0.719213
  outer loop
   vertex 0.0601213 -0.0117877 0.681885
   vertex 0.0631118 -0.0122506 0.679
   vertex 0.0615065 -0.0171509 0.679
  endloop
 endfacet
 facet normal -0.967721 -0.135741 -0.212345
  outer loop
   vertex 0.060842 -0.0163238 0.6815
   vertex 0.0601213 -0.0117877 0.681885
   vertex 0.0615065 -0.0171509 0.679
  endloop
 endfacet
 facet normal -0.23419 0.523776 0.819032
  outer loop
   vertex 0.0763754 -0.0539901 0.664
   vertex 0.0756506 -0.0505168 0.661571
   vertex 0.0690876 -0.0510478 0.660034
  endloop
 endfacet
 facet normal 0.0240357 0.576211 0.816948
  outer loop
   vertex 0.0763754 -0.0539901 0.664
   vertex 0.0833642 -0.0542817 0.664
   vertex 0.0756506 -0.0505168 0.661571
  endloop
 endfacet
 facet normal -0.00923795 -0.221597 -0.975095
  outer loop
   vertex 0.0767449 -0.0592393 0.665189
   vertex 0.0763754 -0.0539901 0.664
   vertex 0.0833642 -0.0542817 0.664
  endloop
 endfacet
 facet normal 0.0253784 -0.265126 -0.96388
  outer loop
   vertex 0.08405 -0.0597073 0.66551
   vertex 0.0767449 -0.0592393 0.665189
   vertex 0.0833642 -0.0542817 0.664
  endloop
 endfacet
 facet normal -0.0283651 -0.271409 -0.962046
  outer loop
   vertex 0.0921328 -0.0596844 0.665266
   vertex 0.08405 -0.0597073 0.66551
   vertex 0.0833642 -0.0542817 0.664
  endloop
 endfacet
 facet normal -0.0198793 -0.258517 -0.965802
  outer loop
   vertex 0.0919567 -0.0549427 0.664
   vertex 0.0921328 -0.0596844 0.665266
   vertex 0.0833642 -0.0542817 0.664
  endloop
 endfacet
 facet normal 0.0440617 0.572874 0.818458
  outer loop
   vertex 0.0919567 -0.0549427 0.664
   vertex 0.0839341 -0.0506798 0.661448
   vertex 0.0833642 -0.0542817 0.664
  endloop
 endfacet
 facet normal 0.0848732 0.624502 0.776398
  outer loop
   vertex 0.0919567 -0.0549427 0.664
   vertex 0.0916587 -0.0513188 0.661118
   vertex 0.0839341 -0.0506798 0.661448
  endloop
 endfacet
 facet normal -0.0442545 0.619641 0.783637
  outer loop
   vertex 0.0919567 -0.0549427 0.664
   vertex 0.100054 -0.0543643 0.664
   vertex 0.0916587 -0.0513188 0.661118
  endloop
 endfacet
 facet normal 0.0183643 -0.257199 -0.966184
  outer loop
   vertex 0.0921328 -0.0596844 0.665266
   vertex 0.0919567 -0.0549427 0.664
   vertex 0.100054 -0.0543643 0.664
  endloop
 endfacet
 facet normal 0.0212679 -0.261249 -0.965037
  outer loop
   vertex 0.100271 -0.0597004 0.665449
   vertex 0.0921328 -0.0596844 0.665266
   vertex 0.100054 -0.0543643 0.664
  endloop
 endfacet
 facet normal -0.39481 -0.255803 -0.882434
  outer loop
   vertex 0.105337 -0.0642445 0.6645
   vertex 0.100271 -0.0597004 0.665449
   vertex 0.100054 -0.0543643 0.664
  endloop
 endfacet
 facet normal 0.143359 0.0266002 -0.989313
  outer loop
   vertex 0.10802 -0.0592306 0.665024
   vertex 0.105337 -0.0642445 0.6645
   vertex 0.100054 -0.0543643 0.664
  endloop
 endfacet
 facet normal 0.0227855 -0.169927 -0.985193
  outer loop
   vertex 0.108629 -0.0537943 0.6641
   vertex 0.10802 -0.0592306 0.665024
   vertex 0.100054 -0.0543643 0.664
  endloop
 endfacet
 facet normal 0.047836 -0.576519 -0.815682
  outer loop
   vertex 0.107332 -0.0502877 0.661545
   vertex 0.108629 -0.0537943 0.6641
   vertex 0.100054 -0.0543643 0.664
  endloop
 endfacet
 facet normal -0.0614469 0.593066 0.802806
  outer loop
   vertex 0.107332 -0.0502877 0.661545
   vertex 0.0996397 -0.0506848 0.66125
   vertex 0.100054 -0.0543643 0.664
  endloop
 endfacet
 facet normal 0.0540684 -0.352309 -0.934321
  outer loop
   vertex 0.107873 -0.044244 0.659298
   vertex 0.107332 -0.0502877 0.661545
   vertex 0.0996397 -0.0506848 0.66125
  endloop
 endfacet
 facet normal -0.0715617 0.371991 0.925474
  outer loop
   vertex 0.107873 -0.044244 0.659298
   vertex 0.100076 -0.044103 0.658638
   vertex 0.0996397 -0.0506848 0.66125
  endloop
 endfacet
 facet normal 0.067781 -0.440165 -0.895355
  outer loop
   vertex 0.108199 -0.0385025 0.6565
   vertex 0.107873 -0.044244 0.659298
   vertex 0.100076 -0.044103 0.658638
  endloop
 endfacet
 facet normal -0.0543955 0.424052 0.904003
  outer loop
   vertex 0.108199 -0.0385025 0.6565
   vertex 0.100345 -0.0390258 0.656273
   vertex 0.100076 -0.044103 0.658638
  endloop
 endfacet
 facet normal 0.088062 -0.4404 -0.893473
  outer loop
   vertex 0.115978 -0.0442506 0.6601
   vertex 0.107873 -0.044244 0.659298
   vertex 0.108199 -0.0385025 0.6565
  endloop
 endfacet
 facet normal 0.0590253 -0.471263 -0.880015
  outer loop
   vertex 0.116215 -0.0383389 0.65695
   vertex 0.115978 -0.0442506 0.6601
   vertex 0.108199 -0.0385025 0.6565
  endloop
 endfacet
 facet normal 0.0588658 -0.486802 -0.871527
  outer loop
   vertex 0.115718 -0.0343525 0.65469
   vertex 0.116215 -0.0383389 0.65695
   vertex 0.108199 -0.0385025 0.6565
  endloop
 endfacet
 facet normal -0.0536237 0.479268 0.876029
  outer loop
   vertex 0.115718 -0.0343525 0.65469
   vertex 0.10763 -0.0344685 0.654258
   vertex 0.108199 -0.0385025 0.6565
  endloop
 endfacet
 facet normal 0.0547165 -0.381208 -0.922869
  outer loop
   vertex 0.116201 -0.0280242 0.652104
   vertex 0.115718 -0.0343525 0.65469
   vertex 0.10763 -0.0344685 0.654258
  endloop
 endfacet
 facet normal -0.106493 0.439689 0.891814
  outer loop
   vertex 0.116201 -0.0280242 0.652104
   vertex 0.10823 -0.0277155 0.651
   vertex 0.10763 -0.0344685 0.654258
  endloop
 endfacet
 facet normal 0.581302 -0.345349 -0.736765
  outer loop
   vertex 0.116215 -0.0383389 0.65695
   vertex 0.115718 -0.0343525 0.65469
   vertex 0.116201 -0.0280242 0.652104
  endloop
 endfacet
 facet normal -0.20886 -0.416041 -0.885035
  outer loop
   vertex 0.121151 -0.0298615 0.6518
   vertex 0.116215 -0.0383389 0.65695
   vertex 0.116201 -0.0280242 0.652104
  endloop
 endfacet
 facet normal 0.0774725 0.362534 -0.928745
  outer loop
   vertex 0.119158 -0.0169682 0.656667
   vertex 0.121151 -0.0298615 0.6518
   vertex 0.116201 -0.0280242 0.652104
  endloop
 endfacet
 facet normal -0.862564 0.0221127 0.505464
  outer loop
   vertex 0.119158 -0.0169682 0.656667
   vertex 0.115367 -0.0200583 0.650333
   vertex 0.116201 -0.0280242 0.652104
  endloop
 endfacet
 facet normal 0.755379 0.283878 -0.590607
  outer loop
   vertex 0.118632 -0.0127938 0.658
   vertex 0.119158 -0.0169682 0.656667
   vertex 0.115367 -0.0200583 0.650333
  endloop
 endfacet
 facet normal -0.77147 -0.264205 0.578817
  outer loop
   vertex 0.118632 -0.0127938 0.658
   vertex 0.114794 -0.0128267 0.65287
   vertex 0.115367 -0.0200583 0.650333
  endloop
 endfacet
 facet normal 0.412962 0.854761 -0.314399
  outer loop
   vertex 0.116422 -0.0091516 0.665
   vertex 0.118632 -0.0127938 0.658
   vertex 0.114794 -0.0128267 0.65287
  endloop
 endfacet
 facet normal 0.733431 0.61696 -0.285378
  outer loop
   vertex 0.112098 -0.00632346 0.66
   vertex 0.116422 -0.0091516 0.665
   vertex 0.114794 -0.0128267 0.65287
  endloop
 endfacet
 facet normal 0.380456 0.750388 -0.540528
  outer loop
   vertex 0.110847 -0.00857064 0.656
   vertex 0.112098 -0.00632346 0.66
   vertex 0.114794 -0.0128267 0.65287
  endloop
 endfacet
 facet normal -0.47212 -0.762807 0.441846
  outer loop
   vertex 0.110847 -0.00857064 0.656
   vertex 0.108964 -0.00997034 0.651571
   vertex 0.114794 -0.0128267 0.65287
  endloop
 endfacet
 facet normal 0.807259 0.369658 -0.460093
  outer loop
   vertex 0.112098 -0.00632346 0.66
   vertex 0.110847 -0.00857064 0.656
   vertex 0.108964 -0.00997034 0.651571
  endloop
 endfacet
 facet normal 0.401271 0.776822 -0.485313
  outer loop
   vertex 0.107707 -0.00471487 0.658944
   vertex 0.112098 -0.00632346 0.66
   vertex 0.108964 -0.00997034 0.651571
  endloop
 endfacet
 facet normal -0.459787 -0.758304 0.462138
  outer loop
   vertex 0.107707 -0.00471487 0.658944
   vertex 0.105685 -0.00658912 0.653857
   vertex 0.108964 -0.00997034 0.651571
  endloop
 endfacet
 facet normal 0.267385 0.919316 0.288728
  outer loop
   vertex 0.116422 -0.0091516 0.665
   vertex 0.112098 -0.00632346 0.66
   vertex 0.107707 -0.00471487 0.658944
  endloop
 endfacet
 facet normal 0.636156 0.616598 -0.463802
  outer loop
   vertex 0.114202 -0.00498019 0.6675
   vertex 0.116422 -0.0091516 0.665
   vertex 0.107707 -0.00471487 0.658944
  endloop
 endfacet
 facet normal -0.60917 -0.65843 0.442019
  outer loop
   vertex 0.114202 -0.00498019 0.6675
   vertex 0.109039 -0.00188158 0.665
   vertex 0.107707 -0.00471487 0.658944
  endloop
 endfacet
 facet normal 0.596036 0.738094 -0.316163
  outer loop
   vertex 0.120933 -0.0076317 0.674
   vertex 0.114202 -0.00498019 0.6675
   vertex 0.109039 -0.00188158 0.665
  endloop
 endfacet
 facet normal 0.620373 0.68477 -0.382397
  outer loop
   vertex 0.11473 -0.00117454 0.6755
   vertex 0.120933 -0.0076317 0.674
   vertex 0.109039 -0.00188158 0.665
  endloop
 endfacet
 facet normal 0.658543 0.637493 -0.399904
  outer loop
   vertex 0.113368 0.00129918 0.6772
   vertex 0.11473 -0.00117454 0.6755
   vertex 0.109039 -0.00188158 0.665
  endloop
 endfacet
 facet normal 0.674172 0.620262 -0.400958
  outer loop
   vertex 0.109153 0.00458791 0.6752
   vertex 0.113368 0.00129918 0.6772
   vertex 0.109039 -0.00188158 0.665
  endloop
 endfacet
 facet normal -0.604064 -0.669906 0.431661
  outer loop
   vertex 0.109153 0.00458791 0.6752
   vertex 0.106593 0.00273127 0.668737
   vertex 0.109039 -0.00188158 0.665
  endloop
 endfacet
 facet normal 0.272757 0.890621 -0.363865
  outer loop
   vertex 0.109153 0.00458791 0.6752
   vertex 0.106593 0.00273127 0.668737
   vertex 0.100288 0.00390599 0.666886
  endloop
 endfacet
 facet normal -0.386222 -0.789756 0.476569
  outer loop
   vertex 0.109153 0.00458791 0.6752
   vertex 0.100237 0.00762038 0.673
   vertex 0.100288 0.00390599 0.666886
  endloop
 endfacet
 facet normal -0.380397 -0.843899 0.378328
  outer loop
   vertex 0.109153 0.00458791 0.6752
   vertex 0.0995575 0.00968807 0.676929
   vertex 0.100237 0.00762038 0.673
  endloop
 endfacet
 facet normal 0.38184 0.84516 -0.374036
  outer loop
   vertex 0.106815 0.0100255 0.6851
   vertex 0.109153 0.00458791 0.6752
   vertex 0.0995575 0.00968807 0.676929
  endloop
 endfacet
 facet normal 0.407848 0.822607 -0.396205
  outer loop
   vertex 0.0996022 0.0128183 0.683474
   vertex 0.106815 0.0100255 0.6851
   vertex 0.0995575 0.00968807 0.676929
  endloop
 endfacet
 facet normal 0.0838393 0.898737 -0.430398
  outer loop
   vertex 0.0922796 0.0135254 0.683524
   vertex 0.0996022 0.0128183 0.683474
   vertex 0.0995575 0.00968807 0.676929
  endloop
 endfacet
 facet normal -0.0333822 -0.879435 0.474848
  outer loop
   vertex 0.0922796 0.0135254 0.683524
   vertex 0.0920227 0.00989263 0.676778
   vertex 0.0995575 0.00968807 0.676929
  endloop
 endfacet
 facet normal 0.754242 0.565688 -0.333341
  outer loop
   vertex 0.0914184 0.0161327 0.686
   vertex 0.0922796 0.0135254 0.683524
   vertex 0.0920227 0.00989263 0.676778
  endloop
 endfacet
 facet normal -0.383116 0.753183 -0.534731
  outer loop
   vertex 0.0831335 0.0147582 0.69
   vertex 0.0914184 0.0161327 0.686
   vertex 0.0920227 0.00989263 0.676778
  endloop
 endfacet
 facet normal 0.134129 0.955823 -0.261557
  outer loop
   vertex 0.0840655 0.0127974 0.683313
   vertex 0.0831335 0.0147582 0.69
   vertex 0.0920227 0.00989263 0.676778
  endloop
 endfacet
 facet normal 0.00557456 -0.911234 0.411851
  outer loop
   vertex 0.0840655 0.0127974 0.683313
   vertex 0.0846162 0.0099002 0.676895
   vertex 0.0920227 0.00989263 0.676778
  endloop
 endfacet
 facet normal 0.248856 -0.874568 0.416176
  outer loop
   vertex 0.0840655 0.0127974 0.683313
   vertex 0.0794068 0.00926105 0.678667
   vertex 0.0846162 0.0099002 0.676895
  endloop
 endfacet
 facet normal -0.360681 0.880242 -0.308357
  outer loop
   vertex 0.0831335 0.0147582 0.69
   vertex 0.0840655 0.0127974 0.683313
   vertex 0.0794068 0.00926105 0.678667
  endloop
 endfacet
 facet normal 0.326907 -0.888054 0.323253
  outer loop
   vertex 0.0831335 0.0147582 0.69
   vertex 0.0770915 0.0102981 0.683857
   vertex 0.0794068 0.00926105 0.678667
  endloop
 endfacet
 facet normal -0.190966 0.874026 -0.446777
  outer loop
   vertex 0.0786949 0.0163443 0.695
   vertex 0.0831335 0.0147582 0.69
   vertex 0.0770915 0.0102981 0.683857
  endloop
 endfacet
 facet normal -0.524002 0.777949 -0.346723
  outer loop
   vertex 0.0754503 0.0126547 0.691625
   vertex 0.0786949 0.0163443 0.695
   vertex 0.0770915 0.0102981 0.683857
  endloop
 endfacet
 facet normal -0.438379 0.830158 -0.344473
  outer loop
   vertex 0.0701157 0.0101441 0.692364
   vertex 0.0754503 0.0126547 0.691625
   vertex 0.0770915 0.0102981 0.683857
  endloop
 endfacet
 facet normal 0.570719 -0.68312 0.45566
  outer loop
   vertex 0.0701157 0.0101441 0.692364
   vertex 0.0733372 0.00681219 0.683333
   vertex 0.0770915 0.0102981 0.683857
  endloop
 endfacet
 facet normal -0.660596 0.596552 -0.455783
  outer loop
   vertex 0.0665637 0.00528954 0.691158
   vertex 0.0701157 0.0101441 0.692364
   vertex 0.0733372 0.00681219 0.683333
  endloop
 endfacet
 facet normal 0.572296 -0.741023 0.351228
  outer loop
   vertex 0.0665637 0.00528954 0.691158
   vertex 0.0686116 0.00347856 0.684
   vertex 0.0733372 0.00681219 0.683333
  endloop
 endfacet
 facet normal -0.950324 0.0958269 -0.296145
  outer loop
   vertex 0.0647719 -0.000605345 0.695
   vertex 0.0665637 0.00528954 0.691158
   vertex 0.0686116 0.00347856 0.684
  endloop
 endfacet
 facet normal -0.470714 0.86803 0.157962
  outer loop
   vertex 0.0624169 -0.00160946 0.6935
   vertex 0.0647719 -0.000605345 0.695
   vertex 0.0686116 0.00347856 0.684
  endloop
 endfacet
 facet normal 0.728936 -0.675062 0.11377
  outer loop
   vertex 0.0624169 -0.00160946 0.6935
   vertex 0.0630256 -0.00342965 0.6788
   vertex 0.0686116 0.00347856 0.684
  endloop
 endfacet
 facet normal 0.928958 -0.360731 0.0831314
  outer loop
   vertex 0.0624169 -0.00160946 0.6935
   vertex 0.0616399 -0.00626061 0.682
   vertex 0.0630256 -0.00342965 0.6788
  endloop
 endfacet
 facet normal -0.764784 0.613592 -0.196494
  outer loop
   vertex 0.0555681 -0.0125476 0.686
   vertex 0.0624169 -0.00160946 0.6935
   vertex 0.0616399 -0.00626061 0.682
  endloop
 endfacet
 facet normal 0.675138 -0.200327 0.709971
  outer loop
   vertex 0.0555681 -0.0125476 0.686
   vertex 0.0601213 -0.0117877 0.681885
   vertex 0.0616399 -0.00626061 0.682
  endloop
 endfacet
 facet normal 0.666 0.0426632 0.744731
  outer loop
   vertex 0.0555681 -0.0125476 0.686
   vertex 0.060842 -0.0163238 0.6815
   vertex 0.0601213 -0.0117877 0.681885
  endloop
 endfacet
 facet normal 0.125354 0.155254 -0.979889
  outer loop
   vertex 0.0847383 -0.0649461 0.665308
   vertex 0.0775556 -0.0642445 0.6645
   vertex 0.0767449 -0.0592393 0.665189
  endloop
 endfacet
 facet normal -0.0467295 -0.0447536 0.997905
  outer loop
   vertex 0.0847383 -0.0649461 0.665308
   vertex 0.08405 -0.0597073 0.66551
   vertex 0.0767449 -0.0592393 0.665189
  endloop
 endfacet
 facet normal 0.0387136 0.0437154 -0.998294
  outer loop
   vertex 0.0921745 -0.065507 0.665572
   vertex 0.0847383 -0.0649461 0.665308
   vertex 0.08405 -0.0597073 0.66551
  endloop
 endfacet
 facet normal 0.0300809 0.0526533 0.99816
  outer loop
   vertex 0.0921745 -0.065507 0.665572
   vertex 0.0921328 -0.0596844 0.665266
   vertex 0.08405 -0.0597073 0.66551
  endloop
 endfacet
 facet normal -0.0100907 -0.0525315 -0.998568
  outer loop
   vertex 0.0998497 -0.0647584 0.665455
   vertex 0.0921745 -0.065507 0.665572
   vertex 0.0921328 -0.0596844 0.665266
  endloop
 endfacet
 facet normal -0.0225599 0.00291772 0.999741
  outer loop
   vertex 0.0998497 -0.0647584 0.665455
   vertex 0.100271 -0.0597004 0.665449
   vertex 0.0921328 -0.0596844 0.665266
  endloop
 endfacet
 facet normal 0.172572 -0.0133671 0.984906
  outer loop
   vertex 0.0998497 -0.0647584 0.665455
   vertex 0.105337 -0.0642445 0.6645
   vertex 0.100271 -0.0597004 0.665449
  endloop
 endfacet
 facet normal -0.484717 0.467142 -0.739478
  outer loop
   vertex 0.115572 -0.0530149 0.664
   vertex 0.113591 -0.0582368 0.662
   vertex 0.10802 -0.0592306 0.665024
  endloop
 endfacet
 facet normal -0.00463223 0.167992 0.985777
  outer loop
   vertex 0.115572 -0.0530149 0.664
   vertex 0.108629 -0.0537943 0.6641
   vertex 0.10802 -0.0592306 0.665024
  endloop
 endfacet
 facet normal 0.0578843 -0.616584 -0.785159
  outer loop
   vertex 0.116643 -0.0503679 0.662
   vertex 0.115572 -0.0530149 0.664
   vertex 0.108629 -0.0537943 0.6641
  endloop
 endfacet
 facet normal -0.0405671 -0.451425 -0.891387
  outer loop
   vertex 0.107873 -0.044244 0.659298
   vertex 0.116643 -0.0503679 0.662
   vertex 0.108629 -0.0537943 0.6641
  endloop
 endfacet
 facet normal -0.578832 0.329284 0.746006
  outer loop
   vertex 0.107873 -0.044244 0.659298
   vertex 0.107332 -0.0502877 0.661545
   vertex 0.108629 -0.0537943 0.6641
  endloop
 endfacet
 facet normal -0.0967422 -0.5145 -0.852016
  outer loop
   vertex 0.120904 -0.0495129 0.661
   vertex 0.116643 -0.0503679 0.662
   vertex 0.107873 -0.044244 0.659298
  endloop
 endfacet
 facet normal -0.0981206 0.0778523 0.992125
  outer loop
   vertex 0.120904 -0.0495129 0.661
   vertex 0.115978 -0.0442506 0.6601
   vertex 0.107873 -0.044244 0.659298
  endloop
 endfacet
 facet normal -0.153919 -0.304843 -0.939883
  outer loop
   vertex 0.121364 -0.0446065 0.659333
   vertex 0.120904 -0.0495129 0.661
   vertex 0.115978 -0.0442506 0.6601
  endloop
 endfacet
 facet normal -0.154964 -0.441362 -0.883847
  outer loop
   vertex 0.121224 -0.0388836 0.6565
   vertex 0.121364 -0.0446065 0.659333
   vertex 0.115978 -0.0442506 0.6601
  endloop
 endfacet
 facet normal -0.000114034 -0.55697 -0.830533
  outer loop
   vertex 0.121488 -0.034805 0.653765
   vertex 0.121224 -0.0388836 0.6565
   vertex 0.115978 -0.0442506 0.6601
  endloop
 endfacet
 facet normal 0.219416 0.451919 0.864654
  outer loop
   vertex 0.121488 -0.034805 0.653765
   vertex 0.116215 -0.0383389 0.65695
   vertex 0.115978 -0.0442506 0.6601
  endloop
 endfacet
 facet normal 0.285389 0.370733 0.883804
  outer loop
   vertex 0.121488 -0.034805 0.653765
   vertex 0.121151 -0.0298615 0.6518
   vertex 0.116215 -0.0383389 0.65695
  endloop
 endfacet
 facet normal 0.695521 0.345322 -0.630081
  outer loop
   vertex 0.121112 -0.0166457 0.659
   vertex 0.121151 -0.0298615 0.6518
   vertex 0.119158 -0.0169682 0.656667
  endloop
 endfacet
 facet normal 0.769097 -0.0477486 -0.637346
  outer loop
   vertex 0.121065 -0.014056 0.65875
   vertex 0.121112 -0.0166457 0.659
   vertex 0.119158 -0.0169682 0.656667
  endloop
 endfacet
 facet normal -0.427889 -0.323512 0.84395
  outer loop
   vertex 0.121065 -0.014056 0.65875
   vertex 0.118632 -0.0127938 0.658
   vertex 0.119158 -0.0169682 0.656667
  endloop
 endfacet
 facet normal -0.507196 -0.819632 0.266376
  outer loop
   vertex 0.121065 -0.014056 0.65875
   vertex 0.116422 -0.0091516 0.665
   vertex 0.118632 -0.0127938 0.658
  endloop
 endfacet
 facet normal 0.825917 0.0688073 0.559577
  outer loop
   vertex 0.121112 -0.0166457 0.659
   vertex 0.121065 -0.014056 0.65875
   vertex 0.116422 -0.0091516 0.665
  endloop
 endfacet
 facet normal 0.586926 0.697041 -0.411888
  outer loop
   vertex 0.120933 -0.0076317 0.674
   vertex 0.121112 -0.0166457 0.659
   vertex 0.116422 -0.0091516 0.665
  endloop
 endfacet
 facet normal -0.660695 -0.612108 0.434519
  outer loop
   vertex 0.120933 -0.0076317 0.674
   vertex 0.114202 -0.00498019 0.6675
   vertex 0.116422 -0.0091516 0.665
  endloop
 endfacet
 facet normal 0.9886 -0.123573 0.086027
  outer loop
   vertex 0.120737 -0.00919718 0.674
   vertex 0.121112 -0.0166457 0.659
   vertex 0.120933 -0.0076317 0.674
  endloop
 endfacet
 facet normal 0.670971 0.576151 -0.466742
  outer loop
   vertex 0.115479 0.00482251 0.684583
   vertex 0.113368 0.00129918 0.6772
   vertex 0.109153 0.00458791 0.6752
  endloop
 endfacet
 facet normal 0.710594 0.503341 -0.491634
  outer loop
   vertex 0.113526 0.00896259 0.686
   vertex 0.115479 0.00482251 0.684583
   vertex 0.109153 0.00458791 0.6752
  endloop
 endfacet
 facet normal -0.283268 0.923324 -0.259292
  outer loop
   vertex 0.109853 0.0072339 0.683857
   vertex 0.113526 0.00896259 0.686
   vertex 0.109153 0.00458791 0.6752
  endloop
 endfacet
 facet normal -0.584954 -0.761214 0.279968
  outer loop
   vertex 0.109853 0.0072339 0.683857
   vertex 0.106815 0.0100255 0.6851
   vertex 0.109153 0.00458791 0.6752
  endloop
 endfacet
 facet normal 0.197231 0.569802 -0.797763
  outer loop
   vertex 0.113526 0.00896259 0.686
   vertex 0.109853 0.0072339 0.683857
   vertex 0.106815 0.0100255 0.6851
  endloop
 endfacet
 facet normal 0.196368 0.888263 -0.415244
  outer loop
   vertex 0.112725 0.0111264 0.69025
   vertex 0.113526 0.00896259 0.686
   vertex 0.106815 0.0100255 0.6851
  endloop
 endfacet
 facet normal 0.234596 0.860046 -0.453085
  outer loop
   vertex 0.108383 0.0125805 0.690762
   vertex 0.112725 0.0111264 0.69025
   vertex 0.106815 0.0100255 0.6851
  endloop
 endfacet
 facet normal 0.529823 0.708347 -0.466403
  outer loop
   vertex 0.105404 0.0166117 0.6935
   vertex 0.108383 0.0125805 0.690762
   vertex 0.106815 0.0100255 0.6851
  endloop
 endfacet
 facet normal 0.302883 0.774021 -0.556015
  outer loop
   vertex 0.102021 0.0147029 0.689
   vertex 0.105404 0.0166117 0.6935
   vertex 0.106815 0.0100255 0.6851
  endloop
 endfacet
 facet normal -0.408872 -0.794061 0.449767
  outer loop
   vertex 0.102021 0.0147029 0.689
   vertex 0.0996022 0.0128183 0.683474
   vertex 0.106815 0.0100255 0.6851
  endloop
 endfacet
 facet normal 0.463343 0.756874 -0.460928
  outer loop
   vertex 0.0995528 0.0176563 0.691368
   vertex 0.102021 0.0147029 0.689
   vertex 0.0996022 0.0128183 0.683474
  endloop
 endfacet
 facet normal 0.0679632 0.850851 -0.520993
  outer loop
   vertex 0.0922331 0.0180624 0.691077
   vertex 0.0995528 0.0176563 0.691368
   vertex 0.0996022 0.0128183 0.683474
  endloop
 endfacet
 facet normal -0.0790277 -0.854763 0.512967
  outer loop
   vertex 0.0922331 0.0180624 0.691077
   vertex 0.0922796 0.0135254 0.683524
   vertex 0.0996022 0.0128183 0.683474
  endloop
 endfacet
 facet normal -0.751446 -0.567624 0.336351
  outer loop
   vertex 0.0922331 0.0180624 0.691077
   vertex 0.0914184 0.0161327 0.686
   vertex 0.0922796 0.0135254 0.683524
  endloop
 endfacet
 facet normal 0.294467 -0.908044 0.297902
  outer loop
   vertex 0.0922331 0.0180624 0.691077
   vertex 0.0831335 0.0147582 0.69
   vertex 0.0914184 0.0161327 0.686
  endloop
 endfacet
 facet normal -0.257881 0.856138 -0.447801
  outer loop
   vertex 0.0842401 0.017151 0.693937
   vertex 0.0922331 0.0180624 0.691077
   vertex 0.0831335 0.0147582 0.69
  endloop
 endfacet
 facet normal 0.213829 -0.860326 0.462727
  outer loop
   vertex 0.0842401 0.017151 0.693937
   vertex 0.0786949 0.0163443 0.695
   vertex 0.0831335 0.0147582 0.69
  endloop
 endfacet
 facet normal -0.224809 0.785097 -0.577133
  outer loop
   vertex 0.0840177 0.0210916 0.699385
   vertex 0.0842401 0.017151 0.693937
   vertex 0.0786949 0.0163443 0.695
  endloop
 endfacet
 facet normal -0.3416 0.815121 -0.467854
  outer loop
   vertex 0.0831431 0.0239481 0.705
   vertex 0.0840177 0.0210916 0.699385
   vertex 0.0786949 0.0163443 0.695
  endloop
 endfacet
 facet normal -0.149456 0.817978 -0.555496
  outer loop
   vertex 0.0763842 0.0188875 0.699367
   vertex 0.0831431 0.0239481 0.705
   vertex 0.0786949 0.0163443 0.695
  endloop
 endfacet
 facet normal -0.565048 0.547052 -0.61762
  outer loop
   vertex 0.0706967 0.0168327 0.70275
   vertex 0.0763842 0.0188875 0.699367
   vertex 0.0786949 0.0163443 0.695
  endloop
 endfacet
 facet normal -0.334125 0.854071 -0.398651
  outer loop
   vertex 0.0736154 0.0149173 0.6962
   vertex 0.0706967 0.0168327 0.70275
   vertex 0.0786949 0.0163443 0.695
  endloop
 endfacet
 facet normal 0.342807 -0.780145 0.523313
  outer loop
   vertex 0.0736154 0.0149173 0.6962
   vertex 0.0754503 0.0126547 0.691625
   vertex 0.0786949 0.0163443 0.695
  endloop
 endfacet
 facet normal -0.874163 0.192537 -0.445835
  outer loop
   vertex 0.0706967 0.0168327 0.70275
   vertex 0.0736154 0.0149173 0.6962
   vertex 0.0754503 0.0126547 0.691625
  endloop
 endfacet
 facet normal -0.487894 0.727873 -0.48183
  outer loop
   vertex 0.0676514 0.0121502 0.69876
   vertex 0.0706967 0.0168327 0.70275
   vertex 0.0754503 0.0126547 0.691625
  endloop
 endfacet
 facet normal -0.567187 0.586184 -0.578522
  outer loop
   vertex 0.0653003 0.00748044 0.696333
   vertex 0.0676514 0.0121502 0.69876
   vertex 0.0754503 0.0126547 0.691625
  endloop
 endfacet
 facet normal 0.410894 -0.905151 -0.108941
  outer loop
   vertex 0.0653003 0.00748044 0.696333
   vertex 0.0701157 0.0101441 0.692364
   vertex 0.0754503 0.0126547 0.691625
  endloop
 endfacet
 facet normal -0.702371 0.329055 -0.631188
  outer loop
   vertex 0.0635612 0.00121069 0.695
   vertex 0.0653003 0.00748044 0.696333
   vertex 0.0701157 0.0101441 0.692364
  endloop
 endfacet
 facet normal 0.806684 -0.590976 0.00299515
  outer loop
   vertex 0.0635612 0.00121069 0.695
   vertex 0.0665637 0.00528954 0.691158
   vertex 0.0701157 0.0101441 0.692364
  endloop
 endfacet
 facet normal 0.52256 0.348373 0.778182
  outer loop
   vertex 0.0635612 0.00121069 0.695
   vertex 0.0647719 -0.000605345 0.695
   vertex 0.0665637 0.00528954 0.691158
  endloop
 endfacet
 facet normal 0.42602 0.284013 -0.858978
  outer loop
   vertex 0.0635612 0.00121069 0.695
   vertex 0.0647719 -0.000605345 0.695
   vertex 0.0624169 -0.00160946 0.6935
  endloop
 endfacet
 facet normal -0.702873 0.534715 -0.469094
  outer loop
   vertex 0.0587695 -0.0019882 0.698533
   vertex 0.0635612 0.00121069 0.695
   vertex 0.0624169 -0.00160946 0.6935
  endloop
 endfacet
 facet normal 0.625547 -0.668026 0.403029
  outer loop
   vertex 0.0587695 -0.0019882 0.698533
   vertex 0.0555681 -0.0125476 0.686
   vertex 0.0624169 -0.00160946 0.6935
  endloop
 endfacet
 facet normal -0.933891 0.26073 0.244678
  outer loop
   vertex 0.11449 -0.0570613 0.664182
   vertex 0.115572 -0.0530149 0.664
   vertex 0.113591 -0.0582368 0.662
  endloop
 endfacet
 facet normal -0.185942 0.639061 0.746342
  outer loop
   vertex 0.120874 -0.0514726 0.664
   vertex 0.116643 -0.0503679 0.662
   vertex 0.115572 -0.0530149 0.664
  endloop
 endfacet
 facet normal -0.0397123 0.836719 0.546191
  outer loop
   vertex 0.120874 -0.0514726 0.664
   vertex 0.120904 -0.0495129 0.661
   vertex 0.116643 -0.0503679 0.662
  endloop
 endfacet
 facet normal 0.991189 -0.11516 -0.0654449
  outer loop
   vertex 0.120874 -0.0514726 0.664
   vertex 0.120904 -0.0495129 0.661
   vertex 0.121364 -0.0446065 0.659333
  endloop
 endfacet
 facet normal 0.8659 0.23873 0.439573
  outer loop
   vertex 0.121488 -0.034805 0.653765
   vertex 0.121224 -0.0388836 0.6565
   vertex 0.121364 -0.0446065 0.659333
  endloop
 endfacet
 facet normal 0.614279 0.629395 -0.475944
  outer loop
   vertex 0.120497 0.000995843 0.686
   vertex 0.113368 0.00129918 0.6772
   vertex 0.115479 0.00482251 0.684583
  endloop
 endfacet
 facet normal 0.630334 0.741312 -0.230513
  outer loop
   vertex 0.119597 0.00300495 0.69
   vertex 0.120497 0.000995843 0.686
   vertex 0.115479 0.00482251 0.684583
  endloop
 endfacet
 facet normal -0.761931 -0.50013 0.411499
  outer loop
   vertex 0.119597 0.00300495 0.69
   vertex 0.113526 0.00896259 0.686
   vertex 0.115479 0.00482251 0.684583
  endloop
 endfacet
 facet normal -0.74756 -0.638177 0.184079
  outer loop
   vertex 0.119597 0.00300495 0.69
   vertex 0.112725 0.0111264 0.69025
   vertex 0.113526 0.00896259 0.686
  endloop
 endfacet
 facet normal 0.709948 0.611443 -0.349444
  outer loop
   vertex 0.115897 0.0133183 0.700529
   vertex 0.119597 0.00300495 0.69
   vertex 0.112725 0.0111264 0.69025
  endloop
 endfacet
 facet normal 0.475957 0.818629 -0.321421
  outer loop
   vertex 0.110587 0.0147585 0.696333
   vertex 0.115897 0.0133183 0.700529
   vertex 0.112725 0.0111264 0.69025
  endloop
 endfacet
 facet normal -0.239604 -0.868358 0.434216
  outer loop
   vertex 0.110587 0.0147585 0.696333
   vertex 0.108383 0.0125805 0.690762
   vertex 0.112725 0.0111264 0.69025
  endloop
 endfacet
 facet normal 0.503702 0.718265 -0.479979
  outer loop
   vertex 0.107478 0.0188042 0.699125
   vertex 0.110587 0.0147585 0.696333
   vertex 0.108383 0.0125805 0.690762
  endloop
 endfacet
 facet normal -0.526421 -0.708393 0.470171
  outer loop
   vertex 0.107478 0.0188042 0.699125
   vertex 0.105404 0.0166117 0.6935
   vertex 0.108383 0.0125805 0.690762
  endloop
 endfacet
 facet normal 0.354374 0.819644 -0.450114
  outer loop
   vertex 0.100148 0.0219521 0.699087
   vertex 0.107478 0.0188042 0.699125
   vertex 0.105404 0.0166117 0.6935
  endloop
 endfacet
 facet normal -0.253587 -0.8072 0.53303
  outer loop
   vertex 0.100148 0.0219521 0.699087
   vertex 0.102021 0.0147029 0.689
   vertex 0.105404 0.0166117 0.6935
  endloop
 endfacet
 facet normal -0.466877 -0.75691 0.457289
  outer loop
   vertex 0.100148 0.0219521 0.699087
   vertex 0.0995528 0.0176563 0.691368
   vertex 0.102021 0.0147029 0.689
  endloop
 endfacet
 facet normal -0.0677333 -0.869548 0.489182
  outer loop
   vertex 0.100148 0.0219521 0.699087
   vertex 0.0922331 0.0180624 0.691077
   vertex 0.0995528 0.0176563 0.691368
  endloop
 endfacet
 facet normal -0.0405239 0.913961 -0.403774
  outer loop
   vertex 0.0917643 0.0220535 0.700158
   vertex 0.100148 0.0219521 0.699087
   vertex 0.0922331 0.0180624 0.691077
  endloop
 endfacet
 facet normal 0.244102 -0.883086 0.400715
  outer loop
   vertex 0.0917643 0.0220535 0.700158
   vertex 0.0842401 0.017151 0.693937
   vertex 0.0922331 0.0180624 0.691077
  endloop
 endfacet
 facet normal 0.0418443 -0.808697 0.586736
  outer loop
   vertex 0.0917643 0.0220535 0.700158
   vertex 0.0840177 0.0210916 0.699385
   vertex 0.0842401 0.017151 0.693937
  endloop
 endfacet
 facet normal -0.0784508 0.926888 -0.367047
  outer loop
   vertex 0.0914942 0.0239481 0.705
   vertex 0.0917643 0.0220535 0.700158
   vertex 0.0840177 0.0210916 0.699385
  endloop
 endfacet
 facet normal 0.262004 0.673342 -0.69135
  outer loop
   vertex 0.0920722 0.0272216 0.708407
   vertex 0.0914942 0.0239481 0.705
   vertex 0.0840177 0.0210916 0.699385
  endloop
 endfacet
 facet normal -0.087868 0.858671 -0.504938
  outer loop
   vertex 0.0844135 0.0267304 0.708905
   vertex 0.0920722 0.0272216 0.708407
   vertex 0.0840177 0.0210916 0.699385
  endloop
 endfacet
 facet normal 0.344813 -0.81385 0.467708
  outer loop
   vertex 0.0844135 0.0267304 0.708905
   vertex 0.0831431 0.0239481 0.705
   vertex 0.0840177 0.0210916 0.699385
  endloop
 endfacet
 facet normal -0.12201 0.826653 -0.549326
  outer loop
   vertex 0.0837367 0.030646 0.714947
   vertex 0.0844135 0.0267304 0.708905
   vertex 0.0831431 0.0239481 0.705
  endloop
 endfacet
 facet normal -0.264272 0.807235 -0.527762
  outer loop
   vertex 0.077712 0.0254391 0.71
   vertex 0.0837367 0.030646 0.714947
   vertex 0.0831431 0.0239481 0.705
  endloop
 endfacet
 facet normal -0.331834 0.74252 -0.58185
  outer loop
   vertex 0.0743555 0.02198 0.7075
   vertex 0.077712 0.0254391 0.71
   vertex 0.0831431 0.0239481 0.705
  endloop
 endfacet
 facet normal 0.307907 -0.861257 0.404265
  outer loop
   vertex 0.0743555 0.02198 0.7075
   vertex 0.0763842 0.0188875 0.699367
   vertex 0.0831431 0.0239481 0.705
  endloop
 endfacet
 facet normal -0.533691 0.737647 -0.413583
  outer loop
   vertex 0.0688527 0.0187512 0.708842
   vertex 0.0743555 0.02198 0.7075
   vertex 0.0763842 0.0188875 0.699367
  endloop
 endfacet
 facet normal 0.510857 -0.763513 0.395061
  outer loop
   vertex 0.0688527 0.0187512 0.708842
   vertex 0.0706967 0.0168327 0.70275
   vertex 0.0763842 0.0188875 0.699367
  endloop
 endfacet
 facet normal -0.606868 0.686828 -0.399973
  outer loop
   vertex 0.0621244 0.0174841 0.716875
   vertex 0.0688527 0.0187512 0.708842
   vertex 0.0706967 0.0168327 0.70275
  endloop
 endfacet
 facet normal -0.690357 0.570217 -0.445264
  outer loop
   vertex 0.0657523 0.0141653 0.707
   vertex 0.0621244 0.0174841 0.716875
   vertex 0.0706967 0.0168327 0.70275
  endloop
 endfacet
 facet normal -0.650067 0.686749 -0.32525
  outer loop
   vertex 0.0629785 0.00917163 0.702
   vertex 0.0657523 0.0141653 0.707
   vertex 0.0706967 0.0168327 0.70275
  endloop
 endfacet
 facet normal 0.654466 -0.689675 0.309876
  outer loop
   vertex 0.0629785 0.00917163 0.702
   vertex 0.0676514 0.0121502 0.69876
   vertex 0.0706967 0.0168327 0.70275
  endloop
 endfacet
 facet normal -0.684822 0.527575 -0.502676
  outer loop
   vertex 0.0609851 0.00372558 0.699
   vertex 0.0629785 0.00917163 0.702
   vertex 0.0676514 0.0121502 0.69876
  endloop
 endfacet
 facet normal 0.729632 -0.566437 0.383127
  outer loop
   vertex 0.0609851 0.00372558 0.699
   vertex 0.0653003 0.00748044 0.696333
   vertex 0.0676514 0.0121502 0.69876
  endloop
 endfacet
 facet normal 0.686582 -0.328392 0.648663
  outer loop
   vertex 0.0609851 0.00372558 0.699
   vertex 0.0635612 0.00121069 0.695
   vertex 0.0653003 0.00748044 0.696333
  endloop
 endfacet
 facet normal 0.691489 -0.320976 0.647161
  outer loop
   vertex 0.0609851 0.00372558 0.699
   vertex 0.0587695 -0.0019882 0.698533
   vertex 0.0635612 0.00121069 0.695
  endloop
 endfacet
 facet normal -0.9303 0.364258 -0.0430993
  outer loop
   vertex 0.0629785 0.00917163 0.702
   vertex 0.0609851 0.00372558 0.699
   vertex 0.0587695 -0.0019882 0.698533
  endloop
 endfacet
 facet normal -0.824893 0.426399 -0.371128
  outer loop
   vertex 0.0581893 0.00534642 0.70825
   vertex 0.0629785 0.00917163 0.702
   vertex 0.0587695 -0.0019882 0.698533
  endloop
 endfacet
 facet normal -0.045429 0.796007 -0.60358
  outer loop
   vertex 0.0557205 0.00122463 0.703
   vertex 0.0581893 0.00534642 0.70825
   vertex 0.0587695 -0.0019882 0.698533
  endloop
 endfacet
 facet normal -0.565137 0.436731 -0.699919
  outer loop
   vertex 0.0545505 -0.00229247 0.70175
   vertex 0.0557205 0.00122463 0.703
   vertex 0.0587695 -0.0019882 0.698533
  endloop
 endfacet
 facet normal 0.441654 -0.738541 0.509411
  outer loop
   vertex 0.0545505 -0.00229247 0.70175
   vertex 0.0555681 -0.0125476 0.686
   vertex 0.0587695 -0.0019882 0.698533
  endloop
 endfacet
 facet normal 0 -0.893612 0.44884
  outer loop
   vertex 0.120799 0.00300495 0.69
   vertex 0.119597 0.00300495 0.69
   vertex 0.120497 0.000995843 0.686
  endloop
 endfacet
 facet normal 0 -0.714399 0.699738
  outer loop
   vertex 0.120799 0.00300495 0.69
   vertex 0.115897 0.0133183 0.700529
   vertex 0.119597 0.00300495 0.69
  endloop
 endfacet
 facet normal 0.457822 0.677336 -0.57586
  outer loop
   vertex 0.114397 0.0193233 0.7064
   vertex 0.118513 0.0153514 0.705
   vertex 0.115897 0.0133183 0.700529
  endloop
 endfacet
 facet normal 0.455274 0.677958 -0.577147
  outer loop
   vertex 0.113224 0.0169328 0.702667
   vertex 0.114397 0.0193233 0.7064
   vertex 0.115897 0.0133183 0.700529
  endloop
 endfacet
 facet normal -0.555779 -0.68744 0.467478
  outer loop
   vertex 0.113224 0.0169328 0.702667
   vertex 0.110587 0.0147585 0.696333
   vertex 0.115897 0.0133183 0.700529
  endloop
 endfacet
 facet normal 0.843803 0.29057 -0.451183
  outer loop
   vertex 0.114397 0.0193233 0.7064
   vertex 0.113224 0.0169328 0.702667
   vertex 0.110587 0.0147585 0.696333
  endloop
 endfacet
 facet normal 0.298969 0.821434 -0.485659
  outer loop
   vertex 0.109394 0.0214498 0.706917
   vertex 0.114397 0.0193233 0.7064
   vertex 0.110587 0.0147585 0.696333
  endloop
 endfacet
 facet normal -0.583282 -0.714639 0.386099
  outer loop
   vertex 0.109394 0.0214498 0.706917
   vertex 0.107478 0.0188042 0.699125
   vertex 0.110587 0.0147585 0.696333
  endloop
 endfacet
 facet normal 0.42556 0.819867 -0.383037
  outer loop
   vertex 0.106125 0.0246539 0.710143
   vertex 0.109394 0.0214498 0.706917
   vertex 0.107478 0.0188042 0.699125
  endloop
 endfacet
 facet normal 0.374962 0.837074 -0.398385
  outer loop
   vertex 0.09943 0.0266593 0.708055
   vertex 0.106125 0.0246539 0.710143
   vertex 0.107478 0.0188042 0.699125
  endloop
 endfacet
 facet normal -0.361673 -0.837117 0.410399
  outer loop
   vertex 0.09943 0.0266593 0.708055
   vertex 0.100148 0.0219521 0.699087
   vertex 0.107478 0.0188042 0.699125
  endloop
 endfacet
 facet normal 0.153377 0.879975 -0.449577
  outer loop
   vertex 0.0920736 0.0311064 0.71425
   vertex 0.09943 0.0266593 0.708055
   vertex 0.100148 0.0219521 0.699087
  endloop
 endfacet
 facet normal 0.0586394 -0.840491 0.538643
  outer loop
   vertex 0.0920736 0.0311064 0.71425
   vertex 0.0917643 0.0220535 0.700158
   vertex 0.100148 0.0219521 0.699087
  endloop
 endfacet
 facet normal 0.941927 -0.291565 0.166626
  outer loop
   vertex 0.0920736 0.0311064 0.71425
   vertex 0.0914942 0.0239481 0.705
   vertex 0.0917643 0.0220535 0.700158
  endloop
 endfacet
 facet normal 0.824114 -0.471779 0.313466
  outer loop
   vertex 0.0920722 0.0272216 0.708407
   vertex 0.0920736 0.0311064 0.71425
   vertex 0.0914942 0.0239481 0.705
  endloop
 endfacet
 facet normal 0.0890139 -0.829443 0.551453
  outer loop
   vertex 0.0920736 0.0311064 0.71425
   vertex 0.0844135 0.0267304 0.708905
   vertex 0.0920722 0.0272216 0.708407
  endloop
 endfacet
 facet normal -0.0414077 0.80139 -0.596707
  outer loop
   vertex 0.0856024 0.0331173 0.7174
   vertex 0.0920736 0.0311064 0.71425
   vertex 0.0844135 0.0267304 0.708905
  endloop
 endfacet
 facet normal 0.320667 -0.778103 0.540119
  outer loop
   vertex 0.0856024 0.0331173 0.7174
   vertex 0.0837367 0.030646 0.714947
   vertex 0.0844135 0.0267304 0.708905
  endloop
 endfacet
 facet normal 0.367677 -0.827887 0.423576
  outer loop
   vertex 0.0755525 0.0277033 0.7163
   vertex 0.077712 0.0254391 0.71
   vertex 0.0837367 0.030646 0.714947
  endloop
 endfacet
 facet normal -0.426396 0.794809 -0.431816
  outer loop
   vertex 0.0698566 0.0252452 0.7174
   vertex 0.0755525 0.0277033 0.7163
   vertex 0.077712 0.0254391 0.71
  endloop
 endfacet
 facet normal -0.530184 0.648838 -0.545816
  outer loop
   vertex 0.066751 0.0211934 0.7156
   vertex 0.0698566 0.0252452 0.7174
   vertex 0.077712 0.0254391 0.71
  endloop
 endfacet
 facet normal 0.500208 -0.770682 0.394767
  outer loop
   vertex 0.066751 0.0211934 0.7156
   vertex 0.0743555 0.02198 0.7075
   vertex 0.077712 0.0254391 0.71
  endloop
 endfacet
 facet normal 0.532668 -0.729389 0.429251
  outer loop
   vertex 0.066751 0.0211934 0.7156
   vertex 0.0688527 0.0187512 0.708842
   vertex 0.0743555 0.02198 0.7075
  endloop
 endfacet
 facet normal 0.633962 -0.64309 0.429565
  outer loop
   vertex 0.066751 0.0211934 0.7156
   vertex 0.0621244 0.0174841 0.716875
   vertex 0.0688527 0.0187512 0.708842
  endloop
 endfacet
 facet normal -0.639022 0.663019 -0.389944
  outer loop
   vertex 0.0698566 0.0252452 0.7174
   vertex 0.066751 0.0211934 0.7156
   vertex 0.0621244 0.0174841 0.716875
  endloop
 endfacet
 facet normal -0.594341 0.626256 -0.504543
  outer loop
   vertex 0.0646831 0.0232357 0.721
   vertex 0.0698566 0.0252452 0.7174
   vertex 0.0621244 0.0174841 0.716875
  endloop
 endfacet
 facet normal -0.723253 0.584978 -0.367024
  outer loop
   vertex 0.063779 0.0246275 0.725
   vertex 0.0646831 0.0232357 0.721
   vertex 0.0621244 0.0174841 0.716875
  endloop
 endfacet
 facet normal -0.771883 0.547111 -0.323829
  outer loop
   vertex 0.0606514 0.020008 0.72465
   vertex 0.063779 0.0246275 0.725
   vertex 0.0621244 0.0174841 0.716875
  endloop
 endfacet
 facet normal -0.74355 0.581747 -0.329704
  outer loop
   vertex 0.0569622 0.0149243 0.724
   vertex 0.0606514 0.020008 0.72465
   vertex 0.0621244 0.0174841 0.716875
  endloop
 endfacet
 facet normal -0.739749 0.589688 -0.324097
  outer loop
   vertex 0.0558912 0.0119318 0.721
   vertex 0.0569622 0.0149243 0.724
   vertex 0.0621244 0.0174841 0.716875
  endloop
 endfacet
 facet normal -0.725764 0.652226 -0.218786
  outer loop
   vertex 0.054974 0.00909986 0.7156
   vertex 0.0558912 0.0119318 0.721
   vertex 0.0621244 0.0174841 0.716875
  endloop
 endfacet
 facet normal -0.598951 0.592695 -0.538489
  outer loop
   vertex 0.0592016 0.0127134 0.714875
   vertex 0.054974 0.00909986 0.7156
   vertex 0.0621244 0.0174841 0.716875
  endloop
 endfacet
 facet normal -0.659065 0.596052 -0.458645
  outer loop
   vertex 0.0614229 0.010777 0.709167
   vertex 0.0592016 0.0127134 0.714875
   vertex 0.0621244 0.0174841 0.716875
  endloop
 endfacet
 facet normal 0.679318 -0.583111 0.445542
  outer loop
   vertex 0.0614229 0.010777 0.709167
   vertex 0.0657523 0.0141653 0.707
   vertex 0.0621244 0.0174841 0.716875
  endloop
 endfacet
 facet normal 0.676302 -0.673772 0.297736
  outer loop
   vertex 0.0614229 0.010777 0.709167
   vertex 0.0629785 0.00917163 0.702
   vertex 0.0657523 0.0141653 0.707
  endloop
 endfacet
 facet normal 0.55522 0.829143 -0.0652156
  outer loop
   vertex 0.0592016 0.0127134 0.714875
   vertex 0.0614229 0.010777 0.709167
   vertex 0.0629785 0.00917163 0.702
  endloop
 endfacet
 facet normal -0.639057 0.6729 -0.372576
  outer loop
   vertex 0.054974 0.00909986 0.7156
   vertex 0.0592016 0.0127134 0.714875
   vertex 0.0629785 0.00917163 0.702
  endloop
 endfacet
 facet normal -0.861801 -0.00261464 -0.50724
  outer loop
   vertex 0.0565131 0.00621023 0.713
   vertex 0.054974 0.00909986 0.7156
   vertex 0.0629785 0.00917163 0.702
  endloop
 endfacet
 facet normal 0.82437 -0.429276 0.368967
  outer loop
   vertex 0.0565131 0.00621023 0.713
   vertex 0.0581893 0.00534642 0.70825
   vertex 0.0629785 0.00917163 0.702
  endloop
 endfacet
 facet normal -0.591474 -0.73201 0.338112
  outer loop
   vertex 0.113647 0.0229779 0.713
   vertex 0.114397 0.0193233 0.7064
   vertex 0.118513 0.0153514 0.705
  endloop
 endfacet
 facet normal -0.314556 -0.845128 0.432218
  outer loop
   vertex 0.113647 0.0229779 0.713
   vertex 0.109394 0.0214498 0.706917
   vertex 0.114397 0.0193233 0.7064
  endloop
 endfacet
 facet normal 0.471743 0.718972 -0.510429
  outer loop
   vertex 0.113548 0.0257811 0.716857
   vertex 0.113647 0.0229779 0.713
   vertex 0.109394 0.0214498 0.706917
  endloop
 endfacet
 facet normal 0.422535 0.752867 -0.504633
  outer loop
   vertex 0.107784 0.0285313 0.716133
   vertex 0.113548 0.0257811 0.716857
   vertex 0.109394 0.0214498 0.706917
  endloop
 endfacet
 facet normal -0.212452 -0.792446 0.571746
  outer loop
   vertex 0.107784 0.0285313 0.716133
   vertex 0.106125 0.0246539 0.710143
   vertex 0.109394 0.0214498 0.706917
  endloop
 endfacet
 facet normal 0.214343 0.791841 -0.571878
  outer loop
   vertex 0.100494 0.0304932 0.716118
   vertex 0.107784 0.0285313 0.716133
   vertex 0.106125 0.0246539 0.710143
  endloop
 endfacet
 facet normal -0.38049 -0.814687 0.437621
  outer loop
   vertex 0.100494 0.0304932 0.716118
   vertex 0.09943 0.0266593 0.708055
   vertex 0.106125 0.0246539 0.710143
  endloop
 endfacet
 facet normal 0.275689 0.853476 -0.442238
  outer loop
   vertex 0.0924694 0.0339012 0.717692
   vertex 0.100494 0.0304932 0.716118
   vertex 0.09943 0.0266593 0.708055
  endloop
 endfacet
 facet normal 0.0561975 -0.778254 0.62543
  outer loop
   vertex 0.0924694 0.0339012 0.717692
   vertex 0.0920736 0.0311064 0.71425
   vertex 0.09943 0.0266593 0.708055
  endloop
 endfacet
 facet normal 0.0622443 -0.778314 0.624783
  outer loop
   vertex 0.0924694 0.0339012 0.717692
   vertex 0.0856024 0.0331173 0.7174
   vertex 0.0920736 0.0311064 0.71425
  endloop
 endfacet
 facet normal -0.0686613 0.815721 -0.574356
  outer loop
   vertex 0.0911791 0.0376706 0.7232
   vertex 0.0924694 0.0339012 0.717692
   vertex 0.0856024 0.0331173 0.7174
  endloop
 endfacet
 facet normal -0.317754 0.86985 -0.37735
  outer loop
   vertex 0.083695 0.035661 0.72487
   vertex 0.0911791 0.0376706 0.7232
   vertex 0.0856024 0.0331173 0.7174
  endloop
 endfacet
 facet normal -0.367722 0.829327 -0.42071
  outer loop
   vertex 0.083695 0.035661 0.72487
   vertex 0.0837367 0.030646 0.714947
   vertex 0.0755525 0.0277033 0.7163
  endloop
 endfacet
 facet normal -0.505149 0.769384 -0.39099
  outer loop
   vertex 0.083695 0.035661 0.72487
   vertex 0.0856024 0.0331173 0.7174
   vertex 0.0837367 0.030646 0.714947
  endloop
 endfacet
 facet normal -0.286325 0.822396 -0.491613
  outer loop
   vertex 0.0766519 0.0334861 0.725333
   vertex 0.083695 0.035661 0.72487
   vertex 0.0755525 0.0277033 0.7163
  endloop
 endfacet
 facet normal -0.543399 0.735488 -0.404692
  outer loop
   vertex 0.0741909 0.0301394 0.722556
   vertex 0.0766519 0.0334861 0.725333
   vertex 0.0755525 0.0277033 0.7163
  endloop
 endfacet
 facet normal -0.419122 0.811478 -0.407236
  outer loop
   vertex 0.0679739 0.0278814 0.724455
   vertex 0.0741909 0.0301394 0.722556
   vertex 0.0755525 0.0277033 0.7163
  endloop
 endfacet
 facet normal 0.426899 -0.803814 0.414295
  outer loop
   vertex 0.0679739 0.0278814 0.724455
   vertex 0.0698566 0.0252452 0.7174
   vertex 0.0755525 0.0277033 0.7163
  endloop
 endfacet
 facet normal -0.590497 0.691557 -0.416007
  outer loop
   vertex 0.063779 0.0246275 0.725
   vertex 0.0679739 0.0278814 0.724455
   vertex 0.0698566 0.0252452 0.7174
  endloop
 endfacet
 facet normal 0.553533 -0.739779 0.382528
  outer loop
   vertex 0.063779 0.0246275 0.725
   vertex 0.0646831 0.0232357 0.721
   vertex 0.0698566 0.0252452 0.7174
  endloop
 endfacet
 facet normal -0.575636 0.661575 -0.480585
  outer loop
   vertex 0.0709203 0.0322941 0.727
   vertex 0.0679739 0.0278814 0.724455
   vertex 0.063779 0.0246275 0.725
  endloop
 endfacet
 facet normal -0.524825 0.636356 -0.565341
  outer loop
   vertex 0.0655162 0.0296139 0.729
   vertex 0.0709203 0.0322941 0.727
   vertex 0.063779 0.0246275 0.725
  endloop
 endfacet
 facet normal -0.609943 0.614189 -0.50074
  outer loop
   vertex 0.0606666 0.027211 0.73196
   vertex 0.0655162 0.0296139 0.729
   vertex 0.063779 0.0246275 0.725
  endloop
 endfacet
 facet normal -0.663057 0.554867 -0.502472
  outer loop
   vertex 0.058215 0.0217216 0.729133
   vertex 0.0606666 0.027211 0.73196
   vertex 0.063779 0.0246275 0.725
  endloop
 endfacet
 facet normal 0.669714 -0.495323 0.553297
  outer loop
   vertex 0.058215 0.0217216 0.729133
   vertex 0.0606514 0.020008 0.72465
   vertex 0.063779 0.0246275 0.725
  endloop
 endfacet
 facet normal -0.570545 0.614433 -0.544932
  outer loop
   vertex 0.0540383 0.0194988 0.731
   vertex 0.058215 0.0217216 0.729133
   vertex 0.0606514 0.020008 0.72465
  endloop
 endfacet
 facet normal -0.693454 0.0281917 -0.71995
  outer loop
   vertex 0.0525062 0.0127708 0.732212
   vertex 0.0540383 0.0194988 0.731
   vertex 0.0606514 0.020008 0.72465
  endloop
 endfacet
 facet normal 0.765166 -0.588629 0.26084
  outer loop
   vertex 0.0525062 0.0127708 0.732212
   vertex 0.0569622 0.0149243 0.724
   vertex 0.0606514 0.020008 0.72465
  endloop
 endfacet
 facet normal 0.781751 -0.558298 0.277793
  outer loop
   vertex 0.0525062 0.0127708 0.732212
   vertex 0.0558912 0.0119318 0.721
   vertex 0.0569622 0.0149243 0.724
  endloop
 endfacet
 facet normal 0 -0.668864 0.743385
  outer loop
   vertex 0.0552711 0.00621023 0.713
   vertex 0.0565131 0.00621023 0.713
   vertex 0.054974 0.00909986 0.7156
  endloop
 endfacet
 facet normal 0 0.983864 -0.178921
  outer loop
   vertex 0.0581893 0.00534642 0.70825
   vertex 0.0552711 0.00621023 0.713
   vertex 0.0565131 0.00621023 0.713
  endloop
 endfacet
 facet normal 0.720042 0.626122 -0.299184
  outer loop
   vertex 0.111309 0.0308142 0.722
   vertex 0.114368 0.0283886 0.724286
   vertex 0.113548 0.0257811 0.716857
  endloop
 endfacet
 facet normal 0.657598 0.661333 -0.360838
  outer loop
   vertex 0.107863 0.0342747 0.722062
   vertex 0.111309 0.0308142 0.722
   vertex 0.113548 0.0257811 0.716857
  endloop
 endfacet
 facet normal 0.856386 0.50371 0.113489
  outer loop
   vertex 0.107924 0.0348612 0.719
   vertex 0.107863 0.0342747 0.722062
   vertex 0.113548 0.0257811 0.716857
  endloop
 endfacet
 facet normal -0.295052 -0.388752 0.872821
  outer loop
   vertex 0.107924 0.0348612 0.719
   vertex 0.107784 0.0285313 0.716133
   vertex 0.113548 0.0257811 0.716857
  endloop
 endfacet
 facet normal -0.148957 0.410666 -0.899536
  outer loop
   vertex 0.0996245 0.0367608 0.721242
   vertex 0.107924 0.0348612 0.719
   vertex 0.107784 0.0285313 0.716133
  endloop
 endfacet
 facet normal 0.00737473 0.532628 -0.846317
  outer loop
   vertex 0.1002 0.0331912 0.719
   vertex 0.0996245 0.0367608 0.721242
   vertex 0.107784 0.0285313 0.716133
  endloop
 endfacet
 facet normal -0.19674 -0.725732 0.659246
  outer loop
   vertex 0.1002 0.0331912 0.719
   vertex 0.100494 0.0304932 0.716118
   vertex 0.107784 0.0285313 0.716133
  endloop
 endfacet
 facet normal 0.966918 0.227863 -0.114665
  outer loop
   vertex 0.0996245 0.0367608 0.721242
   vertex 0.1002 0.0331912 0.719
   vertex 0.100494 0.0304932 0.716118
  endloop
 endfacet
 facet normal -0.121928 -0.63829 0.760078
  outer loop
   vertex 0.0996245 0.0367608 0.721242
   vertex 0.0924694 0.0339012 0.717692
   vertex 0.100494 0.0304932 0.716118
  endloop
 endfacet
 facet normal 0.0441853 -0.819578 0.571261
  outer loop
   vertex 0.0996245 0.0367608 0.721242
   vertex 0.0911791 0.0376706 0.7232
   vertex 0.0924694 0.0339012 0.717692
  endloop
 endfacet
 facet normal -0.143505 0.502829 -0.85239
  outer loop
   vertex 0.0899618 0.0415046 0.725667
   vertex 0.0996245 0.0367608 0.721242
   vertex 0.0911791 0.0376706 0.7232
  endloop
 endfacet
 facet normal -0.682052 0.230058 -0.694174
  outer loop
   vertex 0.0838201 0.0406819 0.731429
   vertex 0.0899618 0.0415046 0.725667
   vertex 0.0911791 0.0376706 0.7232
  endloop
 endfacet
 facet normal -0.193928 0.852502 -0.48542
  outer loop
   vertex 0.0837281 0.0388512 0.72825
   vertex 0.0838201 0.0406819 0.731429
   vertex 0.0911791 0.0376706 0.7232
  endloop
 endfacet
 facet normal 0.329054 -0.688378 0.64642
  outer loop
   vertex 0.0837281 0.0388512 0.72825
   vertex 0.083695 0.035661 0.72487
   vertex 0.0911791 0.0376706 0.7232
  endloop
 endfacet
 facet normal -0.996932 -0.0518128 0.0586735
  outer loop
   vertex 0.0838201 0.0406819 0.731429
   vertex 0.0837281 0.0388512 0.72825
   vertex 0.083695 0.035661 0.72487
  endloop
 endfacet
 facet normal -0.381039 0.737635 -0.557408
  outer loop
   vertex 0.0792741 0.0402768 0.734
   vertex 0.0838201 0.0406819 0.731429
   vertex 0.083695 0.035661 0.72487
  endloop
 endfacet
 facet normal -0.130545 0.857917 -0.496926
  outer loop
   vertex 0.0756184 0.0371597 0.729579
   vertex 0.0792741 0.0402768 0.734
   vertex 0.083695 0.035661 0.72487
  endloop
 endfacet
 facet normal 0.259519 -0.698136 0.667276
  outer loop
   vertex 0.0756184 0.0371597 0.729579
   vertex 0.0766519 0.0334861 0.725333
   vertex 0.083695 0.035661 0.72487
  endloop
 endfacet
 facet normal -0.44723 0.619617 -0.645028
  outer loop
   vertex 0.0688765 0.0343453 0.73155
   vertex 0.0756184 0.0371597 0.729579
   vertex 0.0766519 0.0334861 0.725333
  endloop
 endfacet
 facet normal -0.313869 0.804771 -0.503816
  outer loop
   vertex 0.0709203 0.0322941 0.727
   vertex 0.0688765 0.0343453 0.73155
   vertex 0.0766519 0.0334861 0.725333
  endloop
 endfacet
 facet normal 0.427861 -0.648723 0.62936
  outer loop
   vertex 0.0709203 0.0322941 0.727
   vertex 0.0679739 0.0278814 0.724455
   vertex 0.0741909 0.0301394 0.722556
  endloop
 endfacet
 facet normal 0.325896 -0.734105 0.595719
  outer loop
   vertex 0.0709203 0.0322941 0.727
   vertex 0.0741909 0.0301394 0.722556
   vertex 0.0766519 0.0334861 0.725333
  endloop
 endfacet
 facet normal 0.525928 -0.661581 0.534519
  outer loop
   vertex 0.0688765 0.0343453 0.73155
   vertex 0.0655162 0.0296139 0.729
   vertex 0.0709203 0.0322941 0.727
  endloop
 endfacet
 facet normal -0.600409 0.665433 -0.443517
  outer loop
   vertex 0.0688765 0.0343453 0.73155
   vertex 0.0655162 0.0296139 0.729
   vertex 0.0606666 0.027211 0.73196
  endloop
 endfacet
 facet normal 0.334219 -0.54516 0.768829
  outer loop
   vertex 0.0555445 0.0255377 0.733
   vertex 0.058215 0.0217216 0.729133
   vertex 0.0606666 0.027211 0.73196
  endloop
 endfacet
 facet normal 0.539066 -0.382918 0.750188
  outer loop
   vertex 0.0555445 0.0255377 0.733
   vertex 0.0540383 0.0194988 0.731
   vertex 0.058215 0.0217216 0.729133
  endloop
 endfacet
 facet normal 0.14701 0.142877 0.978762
  outer loop
   vertex 0.0478832 0.0121304 0.733
   vertex 0.0525062 0.0127708 0.732212
   vertex 0.0540383 0.0194988 0.731
  endloop
 endfacet
 facet normal 0.479248 0.764175 -0.431692
  outer loop
   vertex 0.117497 0.0295601 0.729833
   vertex 0.120172 0.0279765 0.73
   vertex 0.114368 0.0283886 0.724286
  endloop
 endfacet
 facet normal 0.874723 -0.0579323 -0.481147
  outer loop
   vertex 0.116672 0.0323385 0.728
   vertex 0.117497 0.0295601 0.729833
   vertex 0.114368 0.0283886 0.724286
  endloop
 endfacet
 facet normal 0.637733 0.296427 -0.710934
  outer loop
   vertex 0.113823 0.0336722 0.726
   vertex 0.116672 0.0323385 0.728
   vertex 0.114368 0.0283886 0.724286
  endloop
 endfacet
 facet normal -0.707925 -0.282962 0.647128
  outer loop
   vertex 0.113823 0.0336722 0.726
   vertex 0.111309 0.0308142 0.722
   vertex 0.114368 0.0283886 0.724286
  endloop
 endfacet
 facet normal -0.507428 -0.517711 0.688834
  outer loop
   vertex 0.113823 0.0336722 0.726
   vertex 0.107863 0.0342747 0.722062
   vertex 0.111309 0.0308142 0.722
  endloop
 endfacet
 facet normal -0.266773 -0.945562 -0.186399
  outer loop
   vertex 0.107863 0.0342747 0.722062
   vertex 0.0996245 0.0367608 0.721242
   vertex 0.107924 0.0348612 0.719
  endloop
 endfacet
 facet normal 0.263195 -0.953882 0.144353
  outer loop
   vertex 0.089075 0.0419913 0.7305
   vertex 0.0838201 0.0406819 0.731429
   vertex 0.0899618 0.0415046 0.725667
  endloop
 endfacet
 facet normal -0.269417 0.943131 -0.194726
  outer loop
   vertex 0.0829209 0.0417819 0.738
   vertex 0.089075 0.0419913 0.7305
   vertex 0.0838201 0.0406819 0.731429
  endloop
 endfacet
 facet normal 0.191915 -0.963333 0.187503
  outer loop
   vertex 0.0829209 0.0417819 0.738
   vertex 0.0792741 0.0402768 0.734
   vertex 0.0838201 0.0406819 0.731429
  endloop
 endfacet
 facet normal 0.814761 0 -0.579797
  outer loop
   vertex 0.047115 0.00129082 0.741
   vertex 0.0492498 0.000648024 0.744
   vertex 0.0492498 -0.000648024 0.744
  endloop
 endfacet
 facet normal -0.776848 -0.133272 -0.615424
  outer loop
   vertex 0.0491918 0.00919602 0.736667
   vertex 0.049151 0.00481576 0.737667
   vertex 0.047115 0.00129082 0.741
  endloop
 endfacet
 facet normal 0.65878 -0.48728 -0.573208
  outer loop
   vertex 0.0491918 0.00919602 0.736667
   vertex 0.0492498 0.000648024 0.744
   vertex 0.047115 0.00129082 0.741
  endloop
 endfacet
 facet normal 0.793587 -1.58054e-05 0.608457
  outer loop
   vertex -0.445976 -0.304826 0.862
   vertex -0.443676 -0.297031 0.859
   vertex -0.443676 -0.295535 0.859
  endloop
 endfacet
 facet normal -0.664421 -0.210957 -0.716967
  outer loop
   vertex 0.479668 -0.354636 0.87
   vertex 0.478493 -0.35773 0.872
   vertex 0.478933 -0.34779 0.868667
  endloop
 endfacet
 facet normal 0 0.784513 0.620112
  outer loop
   vertex -0.449413 -0.357539 0.879
   vertex -0.450051 -0.35912 0.881
   vertex -0.44635 -0.357539 0.879
  endloop
 endfacet
 facet normal 0 -0.784513 -0.620112
  outer loop
   vertex -0.446598 -0.35912 0.881
   vertex -0.450051 -0.35912 0.881
   vertex -0.44635 -0.357539 0.879
  endloop
 endfacet
 facet normal 0.228818 -0.533959 -0.813959
  outer loop
   vertex -0.402455 -0.356008 0.879
   vertex -0.398882 -0.354477 0.879
   vertex -0.404394 -0.359888 0.881
  endloop
 endfacet
 facet normal 0.177259 0.177263 0.968069
  outer loop
   vertex -0.402859 -0.361422 0.881
   vertex -0.398882 -0.354477 0.879
   vertex -0.404394 -0.359888 0.881
  endloop
 endfacet
 facet normal 0.111071 -0.333213 -0.936286
  outer loop
   vertex -0.398255 -0.359888 0.881
   vertex -0.402859 -0.361422 0.881
   vertex -0.398882 -0.354477 0.879
  endloop
 endfacet
 facet normal 0.480762 0 -0.876851
  outer loop
   vertex -0.419363 -0.34756 0.877
   vertex -0.412068 -0.359888 0.881
   vertex -0.412068 -0.361422 0.881
  endloop
 endfacet
endsolid
